<svg width="2919" height="1791" viewBox="0 0 2919 1791" fill="none" xmlns="http://www.w3.org/2000/svg">
<g clip-path="url(#clip0_4_2)">
<path d="M632.467 1589.79C716.306 1589.79 784.271 1517.21 784.271 1427.68C784.271 1338.16 716.306 1265.58 632.467 1265.58C548.627 1265.58 480.662 1338.16 480.662 1427.68C480.662 1517.21 548.627 1589.79 632.467 1589.79Z" fill="#F9DFC8"/>
<path d="M657.15 1566.07C740.99 1566.07 808.955 1493.49 808.955 1403.96C808.955 1314.43 740.99 1241.86 657.15 1241.86C573.311 1241.86 505.346 1314.43 505.346 1403.96C505.346 1493.49 573.311 1566.07 657.15 1566.07Z" fill="#2B468B"/>
<path d="M2657.64 1224.59H779.406V1230.07H2657.64V1224.59Z" fill="#AECDFB"/>
<path d="M1752.14 51.0372H1085.49V36.3645H783.2V51.0372H113.796C107.874 51.0372 102.01 52.2827 96.5391 54.7027C91.068 57.1227 86.0968 60.6697 81.9095 65.1412C77.7221 69.6127 74.4004 74.9212 72.1342 80.7635C69.868 86.6058 68.7017 92.8676 68.7017 99.1913V1073.99C68.7016 1086.76 73.4526 1099.01 81.9094 1108.04C90.3663 1117.07 101.836 1122.14 113.796 1122.14H1752.14C1764.1 1122.14 1775.57 1117.07 1784.03 1108.04C1792.49 1099.01 1797.24 1086.76 1797.24 1073.99V99.1913C1797.24 92.8676 1796.07 86.6058 1793.81 80.7635C1791.54 74.9212 1788.22 69.6127 1784.03 65.1412C1779.84 60.6697 1774.87 57.1227 1769.4 54.7027C1763.93 52.2827 1758.07 51.0372 1752.14 51.0372Z" fill="#AECDFB"/>
<path d="M1736.78 136.139H129.159V1104.54H1736.78V136.139Z" fill="#2B468B"/>
<path d="M931.596 109.728C940.702 109.728 948.084 101.845 948.084 92.1208C948.084 82.3966 940.702 74.5135 931.596 74.5135C922.49 74.5135 915.107 82.3966 915.107 92.1208C915.107 101.845 922.49 109.728 931.596 109.728Z" fill="#2B468B"/>
<path opacity="0.1" d="M1277.03 1104.54H129.16V136.14L1277.03 1104.54Z" fill="black"/>
<path d="M380.704 1032.07C466.048 1032.07 535.233 958.191 535.233 867.056C535.233 775.921 466.048 702.041 380.704 702.041C295.36 702.041 226.174 775.921 226.174 867.056C226.174 958.191 295.36 1032.07 380.704 1032.07Z" fill="#F9DFC8"/>
<path d="M1456.87 658.403H1306.7V691.911H1456.87V658.403Z" fill="#AECDFB"/>
<path d="M1638.41 397.521H1125.15V411.881H1638.41V397.521Z" fill="#AECDFB"/>
<path d="M1638.41 442.996H1125.15V457.356H1638.41V442.996Z" fill="#AECDFB"/>
<path d="M1638.41 488.471H1125.15V502.831H1638.41V488.471Z" fill="#AECDFB"/>
<path d="M1638.41 533.946H1125.15V548.306H1638.41V533.946Z" fill="#AECDFB"/>
<path d="M1638.41 579.421H1125.15V593.781H1638.41V579.421Z" fill="#AECDFB"/>
<path d="M1638.42 155.786H1575.66V222.801H1638.42V155.786Z" fill="#F9DFC8"/>
<path d="M1667.55 253.916H1591.35V172.539H1667.55V253.916ZM1594.66 250.378H1664.24V176.078H1594.66V250.378Z" fill="#AECDFB"/>
<path d="M1842.38 1086.93H1685.48V1074.86C1685.48 1074.54 1685.43 1074.23 1685.31 1073.94C1685.2 1073.65 1685.03 1073.39 1684.83 1073.17C1684.62 1072.94 1684.37 1072.77 1684.1 1072.65C1683.83 1072.53 1683.54 1072.46 1683.24 1072.46H1629.45C1629.16 1072.46 1628.86 1072.53 1628.59 1072.65C1628.32 1072.77 1628.07 1072.94 1627.86 1073.17C1627.66 1073.39 1627.49 1073.65 1627.38 1073.94C1627.27 1074.23 1627.21 1074.54 1627.21 1074.86V1086.93H1593.59V1074.86C1593.59 1074.54 1593.53 1074.23 1593.42 1073.94C1593.31 1073.65 1593.14 1073.39 1592.93 1073.17C1592.72 1072.94 1592.48 1072.77 1592.2 1072.65C1591.93 1072.53 1591.64 1072.46 1591.35 1072.46H1537.56C1537.26 1072.46 1536.97 1072.53 1536.7 1072.65C1536.43 1072.77 1536.18 1072.94 1535.97 1073.17C1535.76 1073.39 1535.6 1073.65 1535.48 1073.94C1535.37 1074.23 1535.31 1074.54 1535.31 1074.86V1086.93H1501.69V1074.86C1501.69 1074.54 1501.64 1074.23 1501.52 1073.94C1501.41 1073.65 1501.25 1073.39 1501.04 1073.17C1500.83 1072.94 1500.58 1072.77 1500.31 1072.65C1500.04 1072.53 1499.75 1072.46 1499.45 1072.46H1445.66C1445.37 1072.46 1445.07 1072.53 1444.8 1072.65C1444.53 1072.77 1444.28 1072.94 1444.08 1073.17C1443.87 1073.39 1443.7 1073.65 1443.59 1073.94C1443.48 1074.23 1443.42 1074.54 1443.42 1074.86V1086.93H1409.8V1074.86C1409.8 1074.54 1409.74 1074.23 1409.63 1073.94C1409.52 1073.65 1409.35 1073.39 1409.14 1073.17C1408.93 1072.94 1408.69 1072.77 1408.42 1072.65C1408.14 1072.53 1407.85 1072.46 1407.56 1072.46H1353.77C1353.47 1072.46 1353.18 1072.53 1352.91 1072.65C1352.64 1072.77 1352.39 1072.94 1352.18 1073.17C1351.97 1073.39 1351.81 1073.65 1351.69 1073.94C1351.58 1074.23 1351.52 1074.54 1351.52 1074.86V1086.93H1317.9V1074.86C1317.9 1074.54 1317.85 1074.23 1317.73 1073.94C1317.62 1073.65 1317.46 1073.39 1317.25 1073.17C1317.04 1072.94 1316.79 1072.77 1316.52 1072.65C1316.25 1072.53 1315.96 1072.46 1315.66 1072.46H1261.87C1261.58 1072.46 1261.29 1072.53 1261.01 1072.65C1260.74 1072.77 1260.49 1072.94 1260.29 1073.17C1260.08 1073.39 1259.91 1073.65 1259.8 1073.94C1259.69 1074.23 1259.63 1074.54 1259.63 1074.86V1086.93H1226.01V1074.86C1226.01 1074.54 1225.95 1074.23 1225.84 1073.94C1225.73 1073.65 1225.56 1073.39 1225.35 1073.17C1225.15 1072.94 1224.9 1072.77 1224.63 1072.65C1224.35 1072.53 1224.06 1072.46 1223.77 1072.46H1169.98C1169.68 1072.46 1169.39 1072.53 1169.12 1072.65C1168.85 1072.77 1168.6 1072.94 1168.39 1073.17C1168.18 1073.39 1168.02 1073.65 1167.91 1073.94C1167.79 1074.23 1167.73 1074.54 1167.73 1074.86V1086.93H1134.11V1074.86C1134.11 1074.54 1134.06 1074.23 1133.94 1073.94C1133.83 1073.65 1133.67 1073.39 1133.46 1073.17C1133.25 1072.94 1133 1072.77 1132.73 1072.65C1132.46 1072.53 1132.17 1072.46 1131.87 1072.46H710.503C710.209 1072.46 709.917 1072.53 709.645 1072.65C709.373 1072.77 709.126 1072.94 708.918 1073.17C708.71 1073.39 708.545 1073.65 708.432 1073.94C708.32 1074.23 708.261 1074.54 708.262 1074.86V1086.93H674.642V1074.86C674.642 1074.54 674.584 1074.23 674.471 1073.94C674.358 1073.65 674.193 1073.39 673.985 1073.17C673.777 1072.94 673.53 1072.77 673.258 1072.65C672.986 1072.53 672.695 1072.46 672.4 1072.46H618.608C618.314 1072.46 618.022 1072.53 617.75 1072.65C617.478 1072.77 617.231 1072.94 617.023 1073.17C616.815 1073.39 616.65 1073.65 616.537 1073.94C616.425 1074.23 616.367 1074.54 616.367 1074.86V1086.93H582.747V1074.86C582.747 1074.54 582.689 1074.23 582.576 1073.94C582.464 1073.65 582.298 1073.39 582.09 1073.17C581.882 1072.94 581.635 1072.77 581.363 1072.65C581.091 1072.53 580.8 1072.46 580.505 1072.46H526.714C526.419 1072.46 526.128 1072.53 525.856 1072.65C525.584 1072.77 525.337 1072.94 525.129 1073.17C524.92 1073.39 524.755 1073.65 524.643 1073.94C524.53 1074.23 524.472 1074.54 524.472 1074.86V1086.93H490.852V1074.86C490.852 1074.54 490.794 1074.23 490.682 1073.94C490.569 1073.65 490.404 1073.39 490.196 1073.17C489.988 1072.94 489.74 1072.77 489.469 1072.65C489.197 1072.53 488.905 1072.46 488.611 1072.46H434.819C434.524 1072.46 434.233 1072.53 433.961 1072.65C433.689 1072.77 433.442 1072.94 433.234 1073.17C433.026 1073.39 432.861 1073.65 432.748 1073.94C432.635 1074.23 432.577 1074.54 432.577 1074.86V1086.93H398.958V1074.86C398.958 1074.54 398.9 1074.23 398.787 1073.94C398.674 1073.65 398.509 1073.39 398.301 1073.17C398.093 1072.94 397.846 1072.77 397.574 1072.65C397.302 1072.53 397.011 1072.46 396.716 1072.46H342.924C342.63 1072.46 342.338 1072.53 342.066 1072.65C341.794 1072.77 341.547 1072.94 341.339 1073.17C341.131 1073.39 340.966 1073.65 340.853 1073.94C340.741 1074.23 340.683 1074.54 340.683 1074.86V1086.93H307.063V1074.86C307.063 1074.54 307.005 1074.23 306.892 1073.94C306.78 1073.65 306.614 1073.39 306.406 1073.17C306.198 1072.94 305.951 1072.77 305.679 1072.65C305.407 1072.53 305.116 1072.46 304.821 1072.46H251.029C250.735 1072.46 250.444 1072.53 250.172 1072.65C249.9 1072.77 249.653 1072.94 249.445 1073.17C249.236 1073.39 249.071 1073.65 248.959 1073.94C248.846 1074.23 248.788 1074.54 248.788 1074.86V1086.93H215.168V1074.86C215.168 1074.54 215.11 1074.23 214.997 1073.94C214.885 1073.65 214.72 1073.39 214.512 1073.17C214.303 1072.94 214.056 1072.77 213.784 1072.65C213.513 1072.53 213.221 1072.46 212.927 1072.46H159.135C158.84 1072.46 158.549 1072.53 158.277 1072.65C158.005 1072.77 157.758 1072.94 157.55 1073.17C157.342 1073.39 157.177 1073.65 157.064 1073.94C156.951 1074.23 156.893 1074.54 156.893 1074.86V1086.93H53.792C39.5255 1086.93 25.8433 1092.98 15.7553 1103.75C5.66738 1114.53 1.35917e-05 1129.14 0 1144.37V1170.35C4.07752e-05 1185.58 5.66742 1200.19 15.7554 1210.96C25.8433 1221.74 39.5255 1227.79 53.792 1227.79H1842.38C1856.64 1227.79 1870.33 1221.74 1880.41 1210.96C1890.5 1200.19 1896.17 1185.58 1896.17 1170.35V1144.37C1896.17 1129.14 1890.5 1114.53 1880.41 1103.75C1870.33 1092.98 1856.64 1086.93 1842.38 1086.93Z" fill="#AECDFB"/>
<path d="M418.109 970.122C379.592 970.122 341.941 957.926 309.916 935.076C277.891 912.225 252.93 879.747 238.191 841.748C223.451 803.749 219.595 761.936 227.109 721.596C234.623 681.257 253.17 644.203 280.406 615.12C307.641 586.037 342.34 566.231 380.116 558.207C417.893 550.183 457.049 554.301 492.633 570.041C528.217 585.78 558.632 612.434 580.03 646.633C601.429 680.831 612.85 721.037 612.85 762.167C612.792 817.301 592.256 870.159 555.747 909.145C519.239 948.13 469.739 970.06 418.109 970.122ZM418.109 559.683C380.606 559.683 343.946 571.559 312.763 593.808C281.581 616.057 257.277 647.681 242.926 684.68C228.574 721.679 224.819 762.391 232.135 801.669C239.452 840.947 257.511 877.026 284.029 905.344C310.548 933.662 344.334 952.946 381.116 960.759C417.898 968.572 456.024 964.562 490.672 949.237C525.32 933.911 554.934 907.958 575.769 874.66C596.605 841.362 607.726 802.214 607.726 762.167C607.669 708.483 587.673 657.016 552.125 619.056C516.577 581.097 468.381 559.744 418.109 559.683Z" fill="#AECDFB"/>
<path d="M2155.41 89.0468H1502V94.5193H2155.41V89.0468Z" fill="#AECDFB"/>
<path d="M2919 1533.79H1040.77V1539.26H2919V1533.79Z" fill="#F9DFC8"/>
<path d="M1147.11 1785.53H493.7V1791H1147.11V1785.53Z" fill="#F9DFC8"/>
<path d="M1278.63 1504.94H1206.89V1581.56H1278.63V1504.94Z" fill="#2B468B"/>
<path d="M1322.19 1537.78H1235.07V1444.74H1322.19V1537.78ZM1238.86 1533.73H1318.41V1448.79H1238.86V1533.73Z" fill="#F9DFC8"/>
<path d="M2111.41 60.1977H2039.66V136.813H2111.41V60.1977Z" fill="#2B468B"/>
<path d="M2154.97 93.0328H2067.85V0H2154.97V93.0328ZM2071.64 88.9879H2151.18V4.04491H2071.64V88.9879Z" fill="#AECDFB"/>
<path d="M2834 1504.94H2762.26V1581.56H2834V1504.94Z" fill="#2B468B"/>
<path d="M2877.56 1537.78H2790.44V1444.74H2877.56V1537.78ZM2794.23 1533.73H2873.78V1448.79H2794.23V1533.73Z" fill="#F9DFC8"/>
<path d="M2708.89 634.698H2702.79V456.399C2702.79 442.847 2700.29 429.428 2695.43 416.908C2690.58 404.388 2683.46 393.012 2674.49 383.429C2665.51 373.847 2654.86 366.245 2643.13 361.059C2631.41 355.873 2618.84 353.204 2606.15 353.204H2252.41C2239.72 353.204 2227.15 355.873 2215.42 361.059C2203.7 366.245 2193.05 373.847 2184.07 383.429C2175.1 393.012 2167.98 404.388 2163.12 416.908C2158.27 429.428 2155.77 442.847 2155.77 456.399V1434.56C2155.77 1448.11 2158.27 1461.53 2163.12 1474.05C2167.98 1486.57 2175.1 1497.95 2184.07 1507.53C2193.05 1517.11 2203.7 1524.71 2215.42 1529.9C2227.15 1535.09 2239.72 1537.76 2252.41 1537.76H2606.15C2618.84 1537.76 2631.41 1535.09 2643.13 1529.9C2654.86 1524.71 2665.51 1517.11 2674.49 1507.53C2683.46 1497.95 2690.58 1486.57 2695.43 1474.05C2700.29 1461.53 2702.79 1448.11 2702.79 1434.56V761.614H2708.89V634.698Z" fill="#AECDFB"/>
<path d="M2682.21 462.464V1439.2C2682.21 1459.64 2674.61 1479.24 2661.08 1493.7C2647.55 1508.15 2629.19 1516.28 2610.05 1516.28H2254.6C2235.46 1516.28 2217.1 1508.15 2203.57 1493.7C2190.04 1479.24 2182.44 1459.64 2182.44 1439.2V462.464C2182.44 442.029 2190.05 422.431 2203.58 407.982C2217.11 393.532 2235.46 385.413 2254.6 385.411H2297.72C2295.6 390.97 2294.79 397.001 2295.37 402.973C2295.94 408.945 2297.88 414.674 2301.02 419.656C2304.16 424.638 2308.39 428.72 2313.35 431.542C2318.32 434.365 2323.85 435.841 2329.47 435.84H2532.13C2537.75 435.841 2543.29 434.365 2548.25 431.542C2553.21 428.72 2557.45 424.638 2560.59 419.656C2563.72 414.674 2565.66 408.945 2566.24 402.973C2566.81 397.001 2566 390.97 2563.88 385.411H2610.05C2629.19 385.413 2647.54 393.532 2661.07 407.982C2674.61 422.431 2682.21 442.029 2682.21 462.464Z" fill="#2B468B"/>
<path d="M2485.27 1029.43H2379.38V1062.94H2485.27V1029.43Z" fill="#AECDFB"/>
<path d="M2613.28 768.547H2251.37V782.907H2613.28V768.547Z" fill="#AECDFB"/>
<path d="M2613.28 814.022H2251.37V828.382H2613.28V814.022Z" fill="#AECDFB"/>
<path d="M2613.28 859.496H2251.37V873.857H2613.28V859.496Z" fill="#AECDFB"/>
<path d="M2613.28 904.972H2251.37V919.332H2613.28V904.972Z" fill="#AECDFB"/>
<path d="M2613.28 950.446H2251.37V964.807H2613.28V950.446Z" fill="#2B468B"/>
<path d="M2444.97 577.84H2382.21V644.856H2444.97V577.84Z" fill="#F9DFC8"/>
<path d="M2406.24 594.598V675.974H2482.44V594.598H2406.24ZM2479.14 672.445H2409.54V598.128H2479.14V672.445Z" fill="#AECDFB"/>
<path opacity="0.1" d="M2682.21 1334.89V1439.2C2682.21 1459.64 2674.61 1479.24 2661.08 1493.7C2647.55 1508.15 2629.19 1516.28 2610.05 1516.28H2254.6C2235.46 1516.28 2217.1 1508.15 2203.57 1493.7C2190.04 1479.24 2182.44 1459.64 2182.44 1439.2V913.263L2481.91 1165.9L2487.03 1170.22L2542.74 1217.21L2547.94 1221.61L2682.21 1334.89Z" fill="black"/>
<path d="M2401.58 1484.63C2463.66 1484.63 2513.98 1430.88 2513.98 1364.59C2513.98 1298.3 2463.66 1244.56 2401.58 1244.56C2339.5 1244.56 2289.17 1298.3 2289.17 1364.59C2289.17 1430.88 2339.5 1484.63 2401.58 1484.63Z" fill="#F9DFC8"/>
<path d="M820.404 1791C776.313 1791 733.212 1777.04 696.552 1750.88C659.891 1724.72 631.318 1687.54 614.445 1644.05C597.572 1600.55 593.158 1552.68 601.759 1506.5C610.361 1460.33 631.593 1417.91 662.77 1384.62C693.947 1351.32 733.669 1328.65 776.913 1319.47C820.157 1310.28 864.98 1314.99 905.715 1333.01C946.449 1351.03 981.266 1381.54 1005.76 1420.69C1030.26 1459.84 1043.33 1505.86 1043.33 1552.95C1043.27 1616.06 1019.76 1676.57 977.964 1721.2C936.171 1765.83 879.508 1790.93 820.404 1791ZM820.404 1320.36C777.327 1320.36 735.216 1334 699.399 1359.56C663.581 1385.12 635.665 1421.44 619.18 1463.94C602.695 1506.44 598.382 1553.2 606.786 1598.32C615.19 1643.44 635.933 1684.88 666.394 1717.41C696.854 1749.93 735.663 1772.08 777.913 1781.06C820.162 1790.03 863.955 1785.43 903.754 1767.82C943.552 1750.22 977.568 1720.41 1001.5 1682.16C1025.43 1643.91 1038.21 1598.95 1038.21 1552.95C1038.14 1491.28 1015.17 1432.16 974.342 1388.56C933.51 1344.96 878.149 1320.43 820.404 1320.36Z" fill="#F9DFC8"/>
<path d="M2434.71 1457.18C2406.84 1457.18 2379.59 1448.35 2356.41 1431.81C2333.24 1415.28 2315.17 1391.77 2304.51 1364.27C2293.84 1336.77 2291.05 1306.52 2296.49 1277.32C2301.92 1248.13 2315.35 1221.31 2335.06 1200.27C2354.77 1179.22 2379.88 1164.89 2407.22 1159.08C2434.55 1153.27 2462.89 1156.25 2488.64 1167.64C2514.39 1179.03 2536.4 1198.32 2551.89 1223.07C2567.38 1247.82 2575.64 1276.92 2575.64 1306.68C2575.6 1346.58 2560.74 1384.83 2534.32 1413.05C2507.9 1441.26 2472.07 1457.13 2434.71 1457.18ZM2434.71 1161.66C2407.85 1161.66 2381.59 1170.17 2359.26 1186.1C2336.93 1202.04 2319.52 1224.69 2309.24 1251.18C2298.96 1277.68 2296.27 1306.84 2301.51 1334.97C2306.75 1363.11 2319.69 1388.95 2338.68 1409.23C2357.67 1429.51 2381.87 1443.32 2408.21 1448.92C2434.56 1454.51 2461.87 1451.64 2486.68 1440.66C2511.5 1429.69 2532.71 1411.1 2547.63 1387.25C2562.55 1363.4 2570.52 1335.36 2570.52 1306.68C2570.48 1268.23 2556.15 1231.37 2530.69 1204.18C2505.23 1177 2470.72 1161.7 2434.71 1161.66Z" fill="#AECDFB"/>
</g>
<defs>
<clipPath id="clip0_4_2">
<rect width="2919" height="1791" fill="white"/>
</clipPath>
</defs>
</svg>
