<svg width="1600" height="553" viewBox="0 0 1600 553" fill="none" xmlns="http://www.w3.org/2000/svg">
<path d="M282.773 419.832V412.728H331.541V419.832H310.421V483H303.317V419.832H282.773ZM338.753 458.232C338.753 447.928 340.385 440.92 343.649 437.208C346.913 433.432 352.769 431.544 361.217 431.544C369.793 431.544 375.681 433.464 378.881 437.304C382.081 441.08 383.681 448.056 383.681 458.232C383.681 467.768 382.081 474.36 378.881 478.008C375.681 481.656 369.793 483.48 361.217 483.48C352.769 483.48 346.913 481.592 343.649 477.816C340.385 474.04 338.753 467.512 338.753 458.232ZM345.857 458.232C345.857 462.392 346.145 465.72 346.721 468.216C347.361 470.712 348.417 472.536 349.889 473.688C351.425 474.84 352.961 475.576 354.497 475.896C356.097 476.216 358.337 476.376 361.217 476.376C364.161 476.376 366.433 476.216 368.033 475.896C369.697 475.576 371.233 474.84 372.641 473.688C374.113 472.472 375.137 470.648 375.713 468.216C376.289 465.72 376.577 462.392 376.577 458.232C376.577 453.688 376.321 450.104 375.809 447.48C375.361 444.856 374.433 442.904 373.025 441.624C371.617 440.28 370.081 439.448 368.417 439.128C366.817 438.808 364.417 438.648 361.217 438.648C358.785 438.648 356.865 438.744 355.457 438.936C354.049 439.128 352.641 439.576 351.233 440.28C349.825 440.984 348.769 442.04 348.065 443.448C347.425 444.856 346.881 446.776 346.433 449.208C346.049 451.576 345.857 454.584 345.857 458.232ZM394.276 483V432.024H399.268L401.38 438.168C401.764 437.912 402.532 437.464 403.684 436.824C404.9 436.12 405.732 435.64 406.18 435.384C406.692 435.064 407.46 434.648 408.484 434.136C409.572 433.624 410.436 433.272 411.076 433.08C411.78 432.824 412.612 432.536 413.572 432.216C414.532 431.896 415.492 431.704 416.452 431.64C417.476 431.512 418.5 431.448 419.524 431.448C422.724 431.448 425.604 432.12 428.164 433.464C430.724 434.808 432.548 436.632 433.636 438.936C439.652 433.944 446.5 431.448 454.18 431.448C458.66 431.448 462.404 432.984 465.412 436.056C468.42 439.128 469.924 443.064 469.924 447.864V483H462.82V447.864C462.82 445.048 461.988 442.808 460.324 441.144C458.724 439.416 456.676 438.552 454.18 438.552C450.34 438.552 447.012 438.936 444.196 439.704C441.444 440.472 438.5 441.88 435.364 443.928V447.672V483H428.26V447.864C428.26 445.048 427.428 442.808 425.764 441.144C424.164 439.416 422.084 438.552 419.524 438.552C417.156 438.552 414.916 438.808 412.804 439.32C410.756 439.832 409.156 440.344 408.004 440.856C406.852 441.304 404.644 442.328 401.38 443.928V483H394.276ZM479.566 458.232C479.566 447.928 481.198 440.92 484.462 437.208C487.726 433.432 493.582 431.544 502.03 431.544C510.606 431.544 516.494 433.464 519.694 437.304C522.894 441.08 524.494 448.056 524.494 458.232C524.494 467.768 522.894 474.36 519.694 478.008C516.494 481.656 510.606 483.48 502.03 483.48C493.582 483.48 487.726 481.592 484.462 477.816C481.198 474.04 479.566 467.512 479.566 458.232ZM486.67 458.232C486.67 462.392 486.958 465.72 487.534 468.216C488.174 470.712 489.23 472.536 490.702 473.688C492.238 474.84 493.774 475.576 495.31 475.896C496.91 476.216 499.15 476.376 502.03 476.376C504.974 476.376 507.246 476.216 508.846 475.896C510.51 475.576 512.046 474.84 513.454 473.688C514.926 472.472 515.95 470.648 516.526 468.216C517.102 465.72 517.39 462.392 517.39 458.232C517.39 453.688 517.134 450.104 516.622 447.48C516.174 444.856 515.246 442.904 513.838 441.624C512.43 440.28 510.894 439.448 509.23 439.128C507.63 438.808 505.23 438.648 502.03 438.648C499.598 438.648 497.678 438.744 496.27 438.936C494.862 439.128 493.454 439.576 492.046 440.28C490.638 440.984 489.582 442.04 488.878 443.448C488.238 444.856 487.694 446.776 487.246 449.208C486.862 451.576 486.67 454.584 486.67 458.232ZM535.088 483V432.024H540.08L542.192 438.456C542.512 438.264 543.312 437.784 544.592 437.016C545.936 436.248 546.8 435.768 547.184 435.576C547.632 435.32 548.432 434.904 549.584 434.328C550.736 433.752 551.632 433.368 552.272 433.176C552.976 432.92 553.84 432.632 554.864 432.312C555.952 431.992 557.008 431.768 558.032 431.64C559.056 431.512 560.112 431.448 561.2 431.448C564.912 431.448 567.28 431.704 568.304 432.216V439.224C566.768 438.84 564.4 438.648 561.2 438.648C558.768 438.648 556.432 438.904 554.192 439.416C552.016 439.928 550.256 440.472 548.912 441.048C547.632 441.624 545.392 442.68 542.192 444.216V483H535.088ZM575.963 483V432.024H580.955L583.067 438.456C583.387 438.264 584.187 437.784 585.467 437.016C586.811 436.248 587.675 435.768 588.059 435.576C588.507 435.32 589.307 434.904 590.459 434.328C591.611 433.752 592.507 433.368 593.147 433.176C593.851 432.92 594.715 432.632 595.739 432.312C596.827 431.992 597.883 431.768 598.907 431.64C599.931 431.512 600.987 431.448 602.075 431.448C605.787 431.448 608.155 431.704 609.179 432.216V439.224C607.643 438.84 605.275 438.648 602.075 438.648C599.643 438.648 597.307 438.904 595.067 439.416C592.891 439.928 591.131 440.472 589.787 441.048C588.507 441.624 586.267 442.68 583.067 444.216V483H575.963ZM615.878 458.232C615.878 447.928 617.51 440.92 620.774 437.208C624.038 433.432 629.894 431.544 638.342 431.544C646.918 431.544 652.806 433.464 656.006 437.304C659.206 441.08 660.806 448.056 660.806 458.232C660.806 467.768 659.206 474.36 656.006 478.008C652.806 481.656 646.918 483.48 638.342 483.48C629.894 483.48 624.038 481.592 620.774 477.816C617.51 474.04 615.878 467.512 615.878 458.232ZM622.982 458.232C622.982 462.392 623.27 465.72 623.846 468.216C624.486 470.712 625.542 472.536 627.014 473.688C628.55 474.84 630.086 475.576 631.622 475.896C633.222 476.216 635.462 476.376 638.342 476.376C641.286 476.376 643.558 476.216 645.158 475.896C646.822 475.576 648.358 474.84 649.766 473.688C651.238 472.472 652.262 470.648 652.838 468.216C653.414 465.72 653.702 462.392 653.702 458.232C653.702 453.688 653.446 450.104 652.934 447.48C652.486 444.856 651.558 442.904 650.15 441.624C648.742 440.28 647.206 439.448 645.542 439.128C643.942 438.808 641.542 438.648 638.342 438.648C635.91 438.648 633.99 438.744 632.582 438.936C631.174 439.128 629.766 439.576 628.358 440.28C626.95 440.984 625.894 442.04 625.19 443.448C624.55 444.856 624.006 446.776 623.558 449.208C623.174 451.576 622.982 454.584 622.982 458.232ZM667.561 432.024H675.337L690.409 472.536L703.657 432.024H711.337L706.153 448.344L717.289 472.536L732.841 432.024H740.617L721.129 483H714.025L702.697 458.04L694.345 483H686.665L667.561 432.024ZM747.796 419.16V412.728H754.996V419.16L754.036 432.024H748.852L747.796 419.16ZM764.074 448.632V444.216C764.074 440.056 765.098 436.92 767.146 434.808C769.194 432.632 772.586 431.544 777.322 431.544C783.402 431.544 791.754 432.056 802.378 433.08V438.552H777.322C775.85 438.552 774.666 438.68 773.77 438.936C772.874 439.192 772.234 439.64 771.85 440.28C771.53 440.856 771.338 441.4 771.274 441.912C771.21 442.424 771.178 443.192 771.178 444.216V448.632C771.178 449.912 771.306 450.936 771.562 451.704C771.882 452.472 772.362 453.016 773.002 453.336C773.642 453.656 774.25 453.88 774.826 454.008C775.402 454.072 776.234 454.104 777.322 454.104H792.49C796.522 454.104 799.594 455.256 801.706 457.56C803.882 459.8 804.97 462.776 804.97 466.488V471.192C804.97 475.928 803.818 479.16 801.514 480.888C799.21 482.616 796.202 483.48 792.49 483.48C786.538 483.48 777.77 482.872 766.186 481.656V476.376H792.49C792.618 476.376 792.746 476.376 792.874 476.376C793.322 476.376 793.77 476.344 794.218 476.28C794.666 476.152 795.178 475.928 795.754 475.608C796.394 475.288 796.906 474.744 797.29 473.976C797.674 473.208 797.866 472.28 797.866 471.192V466.488C797.866 464.696 797.45 463.384 796.618 462.552C795.85 461.656 794.474 461.208 792.49 461.208H777.322C772.65 461.208 769.258 460.312 767.146 458.52C765.098 456.728 764.074 453.432 764.074 448.632ZM844.336 419.832V412.728H893.104V419.832H871.984V483H864.88V419.832H844.336ZM900.316 457.272C900.316 451.64 900.7 447.128 901.468 443.736C902.236 440.28 903.612 437.688 905.596 435.96C907.644 434.168 909.884 433.016 912.316 432.504C914.812 431.928 918.236 431.64 922.588 431.64C926.108 431.64 928.86 431.8 930.844 432.12C932.828 432.44 934.78 433.176 936.7 434.328C938.62 435.48 939.996 437.304 940.828 439.8C941.66 442.296 942.076 445.592 942.076 449.688C942.076 457.496 937.692 461.4 928.924 461.4H907.42C907.42 467.352 908.092 471.352 909.436 473.4C910.78 475.384 913.34 476.376 917.116 476.376C917.564 476.376 918.236 476.376 919.132 476.376C920.028 476.376 920.7 476.376 921.148 476.376C930.108 476.376 936.764 476.056 941.116 475.416V480.792C934.78 482.584 926.78 483.48 917.116 483.48C910.652 483.48 906.236 481.624 903.868 477.912C901.5 474.2 900.316 467.32 900.316 457.272ZM907.42 454.392H928.924C932.956 454.392 934.972 452.824 934.972 449.688C934.972 444.76 934.236 441.72 932.764 440.568C931.356 439.352 927.996 438.744 922.684 438.744C920.444 438.744 918.78 438.776 917.692 438.84C916.668 438.904 915.42 439.096 913.948 439.416C912.54 439.672 911.516 440.12 910.876 440.76C910.3 441.4 909.66 442.296 908.956 443.448C908.316 444.6 907.9 446.072 907.708 447.864C907.516 449.656 907.42 451.832 907.42 454.392ZM950.753 457.464C950.753 452.088 951.137 447.64 951.905 444.12C952.737 440.536 953.953 437.88 955.553 436.152C957.153 434.36 958.881 433.144 960.737 432.504C962.593 431.864 964.865 431.544 967.553 431.544C973.185 431.544 980.481 432.376 989.441 434.04V439.224C980.545 438.84 973.249 438.648 967.553 438.648C965.825 438.648 964.481 438.808 963.521 439.128C962.561 439.448 961.569 440.216 960.545 441.432C959.585 442.584 958.881 444.504 958.433 447.192C958.049 449.88 957.857 453.432 957.857 457.848C957.857 465.016 958.561 469.912 959.969 472.536C961.441 475.096 963.969 476.376 967.553 476.376C970.177 476.376 973.345 476.312 977.057 476.184C980.833 475.992 983.969 475.8 986.465 475.608L990.113 475.32V480.696C983.969 482.424 976.449 483.352 967.553 483.48C964.929 483.48 962.689 483.16 960.833 482.52C959.041 481.88 957.313 480.696 955.649 478.968C954.049 477.176 952.833 474.488 952.001 470.904C951.169 467.32 950.753 462.84 950.753 457.464ZM999.713 483V407.736H1006.82V437.976C1007.01 437.912 1007.71 437.528 1008.93 436.824C1010.15 436.056 1010.88 435.608 1011.14 435.48C1011.46 435.352 1012.16 435 1013.25 434.424C1014.34 433.784 1015.11 433.4 1015.55 433.272C1016 433.144 1016.74 432.888 1017.76 432.504C1018.79 432.12 1019.62 431.864 1020.26 431.736C1020.96 431.608 1021.79 431.48 1022.75 431.352C1023.71 431.224 1024.67 431.16 1025.63 431.16C1030.5 431.16 1034.34 432.76 1037.15 435.96C1039.97 439.16 1041.38 443 1041.38 447.48V483H1034.27V447.48C1034.27 444.408 1033.47 442.104 1031.87 440.568C1030.34 439.032 1028.26 438.264 1025.63 438.264C1023.2 438.264 1020.9 438.52 1018.72 439.032C1016.55 439.544 1014.79 440.088 1013.44 440.664C1012.16 441.176 1009.95 442.2 1006.82 443.736V483H999.713ZM1081.71 419.832V412.728H1130.48V419.832H1109.36V483H1102.25V419.832H1081.71ZM1137.69 458.232C1137.69 447.928 1139.32 440.92 1142.59 437.208C1145.85 433.432 1151.71 431.544 1160.15 431.544C1168.73 431.544 1174.62 433.464 1177.82 437.304C1181.02 441.08 1182.62 448.056 1182.62 458.232C1182.62 467.768 1181.02 474.36 1177.82 478.008C1174.62 481.656 1168.73 483.48 1160.15 483.48C1151.71 483.48 1145.85 481.592 1142.59 477.816C1139.32 474.04 1137.69 467.512 1137.69 458.232ZM1144.79 458.232C1144.79 462.392 1145.08 465.72 1145.66 468.216C1146.3 470.712 1147.35 472.536 1148.83 473.688C1150.36 474.84 1151.9 475.576 1153.43 475.896C1155.03 476.216 1157.27 476.376 1160.15 476.376C1163.1 476.376 1165.37 476.216 1166.97 475.896C1168.63 475.576 1170.17 474.84 1171.58 473.688C1173.05 472.472 1174.07 470.648 1174.65 468.216C1175.23 465.72 1175.51 462.392 1175.51 458.232C1175.51 453.688 1175.26 450.104 1174.75 447.48C1174.3 444.856 1173.37 442.904 1171.96 441.624C1170.55 440.28 1169.02 439.448 1167.35 439.128C1165.75 438.808 1163.35 438.648 1160.15 438.648C1157.72 438.648 1155.8 438.744 1154.39 438.936C1152.99 439.128 1151.58 439.576 1150.17 440.28C1148.76 440.984 1147.71 442.04 1147 443.448C1146.36 444.856 1145.82 446.776 1145.37 449.208C1144.99 451.576 1144.79 454.584 1144.79 458.232ZM1192.25 457.752C1192.25 454.04 1192.45 450.808 1192.83 448.056C1193.28 445.24 1194.05 442.488 1195.13 439.8C1196.29 437.048 1198.01 434.936 1200.32 433.464C1202.69 431.992 1205.6 431.256 1209.05 431.256C1211.42 431.256 1214.43 431.608 1218.08 432.312C1221.73 433.016 1224.99 433.944 1227.87 435.096V407.64H1234.88V483H1229.79L1227.87 477.336C1226.27 478.488 1223.45 479.832 1219.42 481.368C1215.45 482.84 1212 483.576 1209.05 483.576C1205.73 483.576 1202.91 482.808 1200.61 481.272C1198.3 479.736 1196.57 477.656 1195.42 475.032C1194.27 472.344 1193.44 469.624 1192.93 466.872C1192.48 464.056 1192.25 461.016 1192.25 457.752ZM1199.36 457.752C1199.36 470.232 1202.59 476.472 1209.05 476.472C1214.37 476.472 1220.64 475 1227.87 472.056V440.856C1221.47 439.192 1215.2 438.36 1209.05 438.36C1205.73 438.36 1203.26 439.736 1201.66 442.488C1200.13 445.24 1199.36 450.328 1199.36 457.752ZM1244.45 470.904V465.048C1244.45 461.144 1245.57 458.04 1247.81 455.736C1250.11 453.432 1253.25 452.28 1257.22 452.28C1263.55 452.28 1268.8 452.28 1272.96 452.28C1274.69 452.28 1276.03 452.28 1276.99 452.28C1278.02 452.28 1278.53 452.28 1278.53 452.28C1278.53 450.424 1278.53 448.856 1278.53 447.576C1278.53 447.32 1278.53 447.096 1278.53 446.904C1278.53 446.712 1278.53 446.552 1278.53 446.424C1278.53 446.232 1278.53 446.104 1278.53 446.04C1278.53 445.912 1278.53 445.848 1278.53 445.848C1278.53 440.6 1275.91 437.976 1270.66 437.976C1264.9 437.976 1256.71 438.36 1246.08 439.128V433.944C1252.55 432.152 1260.83 431.192 1270.95 431.064C1271.01 431.064 1271.11 431.064 1271.23 431.064C1275.46 431.064 1278.91 432.312 1281.6 434.808C1284.29 437.24 1285.63 440.92 1285.63 445.848V483H1280.35L1278.53 476.856L1277.09 477.528C1276.19 477.976 1274.98 478.552 1273.44 479.256C1271.91 479.896 1270.24 480.568 1268.45 481.272C1266.66 481.912 1264.74 482.456 1262.69 482.904C1260.64 483.352 1258.82 483.576 1257.22 483.576C1253.57 483.576 1250.53 482.456 1248.1 480.216C1245.67 477.976 1244.45 474.872 1244.45 470.904ZM1251.55 470.424C1251.55 474.456 1253.44 476.472 1257.22 476.472C1259.52 476.472 1262.43 476.056 1265.95 475.224C1269.54 474.392 1272.55 473.592 1274.98 472.824L1278.53 471.576V457.848L1257.22 459.384C1255.3 459.576 1253.86 460.248 1252.9 461.4C1252 462.552 1251.55 463.96 1251.55 465.624V470.424ZM1292.41 432.024H1300.18L1312.57 471.864C1313.01 473.4 1313.65 474.456 1314.49 475.032C1315.38 475.608 1316.31 475.896 1317.27 475.896C1318.36 475.896 1318.9 475.8 1318.9 475.608L1333.49 432.024H1341.46L1319 499.128L1311.8 508.92H1307.38L1316.41 483C1310.9 483 1307.06 479.48 1304.89 472.44L1292.41 432.024Z" fill="#AECDFB"/>
<g filter="url(#filter0_d_6_685)">
<rect x="152" y="29" width="1317" height="300" rx="100" fill="#AECDFB" fill-opacity="0.23" shape-rendering="crispEdges"/>
</g>
<path d="M139.338 262.04C136.911 262.04 135.698 259.987 135.698 255.88C135.698 254.76 135.884 253.733 136.258 252.8C136.631 251.867 137.658 251.4 139.338 251.4H160.338C160.711 246.733 161.271 241.04 162.018 234.32C162.764 227.413 163.511 219.853 164.258 211.64C166.124 191.107 167.058 172.533 167.058 155.92V87.88L149.978 90.4L103.778 120.08C103.591 120.08 103.404 120.547 103.218 121.48C103.218 122.227 103.031 122.6 102.658 122.6C100.604 122.6 98.8311 121.667 97.3378 119.8C95.8445 117.933 95.0978 115.973 95.0978 113.92L113.858 64.64L145.498 74.44C150.724 76.12 158.471 76.96 168.738 76.96L190.298 76.4L217.458 76.68C231.084 76.68 242.284 74.6267 251.058 70.52C252.738 69.7733 254.138 69.0267 255.258 68.28C256.191 67.3467 257.218 66.5067 258.338 65.76C260.391 64.2667 262.724 63.52 265.338 63.52C267.951 63.52 269.631 64.08 270.378 65.2L289.418 104.12C289.418 105.053 288.484 106.453 286.618 108.32C284.938 110 284.098 110.747 284.098 110.56L251.618 96.84L228.378 87.88C226.138 87.88 224.271 88.44 222.778 89.56C221.471 90.68 220.444 92.92 219.698 96.28C218.204 101.88 217.458 114.76 217.458 134.92L215.778 209.96C215.778 233.48 216.898 246.733 219.138 249.72C219.884 250.84 220.818 251.307 221.938 251.12L237.058 249.72C239.484 249.72 241.538 249.907 243.218 250.28C244.711 250.28 245.458 251.213 245.458 253.08C245.458 257.933 244.244 260.547 241.818 260.92L224.458 262.04H139.338ZM335.137 220.88L334.857 224.52C334.857 232.733 336.91 239.92 341.017 246.08C342.51 248.133 343.817 249.533 344.937 250.28C346.057 250.84 347.55 251.12 349.417 251.12H353.337C366.403 251.12 378.537 248.04 389.737 241.88C391.79 240.76 393.843 239.08 395.897 236.84L402.617 229.56C404.67 227.32 406.63 225.36 408.497 223.68C410.363 221.813 412.043 220.88 413.537 220.88C415.03 220.88 416.15 221.72 416.897 223.4C417.643 225.08 418.017 226.387 418.017 227.32C417.83 229.187 415.497 232.64 411.017 237.68C406.163 242.907 400.843 247.2 395.057 250.56C389.27 253.733 383.017 256.44 376.297 258.68C363.417 262.787 350.537 264.84 337.657 264.84C337.47 265.027 337.283 265.12 337.097 265.12C324.403 265.12 313.67 261.947 304.897 255.6C295.937 249.253 287.91 241.227 280.817 231.52C277.27 226.667 275.217 221.533 274.657 216.12C274.097 210.52 273.817 204.267 273.817 197.36C273.817 190.267 276.71 182.613 282.497 174.4C288.283 166.187 295.377 158.813 303.777 152.28C312.177 145.56 321.137 140.147 330.657 136.04C340.363 131.933 348.39 129.88 354.737 129.88C361.083 129.88 367.243 130.44 373.217 131.56C379.003 132.307 384.51 133.987 389.737 136.6C402.057 142.573 408.217 151.533 408.217 163.48C408.217 179.16 399.817 192.6 383.017 203.8C368.83 213.507 352.87 219.2 335.137 220.88ZM331.497 200.16C331.497 202.027 332.43 203.613 334.297 204.92C336.163 206.227 338.777 206.88 342.137 206.88C342.323 206.88 342.417 206.88 342.417 206.88C348.763 206.88 355.577 201.373 362.857 190.36C369.763 180.093 373.217 170.947 373.217 162.92C373.217 158.067 372.19 154.24 370.137 151.44C366.403 146.4 362.39 143.88 358.097 143.88C353.99 143.88 350.35 145.933 347.177 150.04C343.817 154.147 341.017 159 338.777 164.6C333.923 176.92 331.497 188.773 331.497 200.16ZM552.629 134.64C555.055 134.64 557.295 135.48 559.349 137.16C561.589 138.653 562.709 139.493 562.709 139.68V171.6C562.709 173.467 561.589 175.053 559.349 176.36C557.109 177.667 554.962 178.32 552.909 178.32C551.042 178.32 548.709 177.013 545.909 174.4C543.295 171.6 540.122 168.52 536.389 165.16C526.495 156.573 516.229 152.28 505.589 152.28C501.669 152.28 498.122 154.333 494.949 158.44C491.962 162.547 489.535 166.933 487.669 171.6C485.802 176.267 484.495 180.84 483.749 185.32C482.629 191.667 482.069 198.573 482.069 206.04C481.882 206.6 481.789 207.067 481.789 207.44C481.789 214.347 482.442 220.413 483.749 225.64C485.242 230.867 487.109 235.72 489.349 240.2C496.442 248.787 502.695 253.827 508.109 255.32C521.175 255.32 533.589 249.627 545.349 238.24C546.469 236.933 547.309 235.533 547.869 234.04C548.429 232.547 549.082 231.053 549.829 229.56C551.509 226.387 554.122 224.8 557.669 224.8C561.215 224.613 563.549 225.453 564.669 227.32C565.789 229.187 566.349 231.053 566.349 232.92C564.669 236.28 561.869 239.92 557.949 243.84C554.215 247.76 550.295 251.12 546.189 253.92C542.269 256.72 538.069 258.96 533.589 260.64C525.562 263.627 515.762 265.12 504.189 265.12C492.802 265.12 482.629 264.093 473.669 262.04C464.895 259.8 457.242 256.253 450.709 251.4C436.709 240.76 429.709 223.587 429.709 199.88C429.895 183.453 435.775 169.64 447.349 158.44C460.602 145.747 478.055 139.307 499.709 139.12C505.309 139.12 510.442 139.68 515.109 140.8C519.962 141.733 525.842 142.2 532.749 142.2C539.655 142.2 546.282 139.68 552.629 134.64ZM650.034 250C654.327 250 657.034 252.333 658.154 257C658.154 260.36 657.127 262.32 655.074 262.88C653.02 263.627 650.407 264 647.234 264C644.247 264 641.82 263.907 639.954 263.72C637.714 263.72 635.66 263.533 633.794 263.16C629.314 262.413 623.9 262.04 617.554 262.04C611.394 262.04 606.914 262.133 604.114 262.32C601.5 262.693 598.98 263.16 596.554 263.72C594.127 264.28 591.7 264.84 589.274 265.4L581.154 267.64H579.474C573.5 267.64 570.514 264.933 570.514 259.52C570.514 255.973 573.22 253.64 578.634 252.52C584.794 251.4 589.46 248.973 592.634 245.24C595.994 241.507 598.327 237.96 599.634 234.6C601.314 230.12 602.154 222.467 602.154 211.64C604.394 166.84 605.514 129.787 605.514 100.48L599.634 100.76C596.834 100.76 594.78 100.293 593.474 99.36C592.167 98.4267 591.514 96.4667 591.514 93.48C591.514 90.4933 592.727 88.8133 595.154 88.44C597.58 88.0667 600.847 87.32 604.954 86.2C620.447 82.28 633.047 77.4267 642.754 71.64C645.74 67.9067 648.074 66.04 649.754 66.04C651.434 66.04 652.647 66.9733 653.394 68.84C654.327 70.52 654.794 72.48 654.794 74.72C654.794 76.96 653.954 79.48 652.274 82.28C650.78 85.08 649.754 88.0667 649.194 91.24C648.82 94.4133 648.26 98.8 647.514 104.4C646.954 109.813 646.394 115.133 645.834 120.36C644.527 132.68 643.874 139.307 643.874 140.24C643.874 140.987 643.874 142.387 643.874 144.44C644.06 146.493 644.154 147.893 644.154 148.64C647.514 145.28 651.9 141.733 657.314 138C662.914 134.267 667.207 132.12 670.194 131.56C673.18 130.813 677.567 130.44 683.354 130.44C696.42 130.44 707.807 135.293 717.514 145C728.34 155.827 734.127 172.347 734.874 194.56C735.06 200.533 735.154 206.32 735.154 211.92V215.56C736.46 228.627 738.234 236 740.474 237.68L746.354 237.4C752.14 237.4 755.78 237.96 757.274 239.08C758.954 240.013 759.794 242.533 759.794 246.64C757.554 251.12 748.594 254.853 732.914 257.84C728.994 258.587 725.634 258.96 722.834 258.96C713.314 258.96 705.66 257 699.874 253.08C694.274 249.16 689.794 242.813 686.434 234.04L685.034 230.12C684.287 228.627 683.634 227.133 683.074 225.64L681.674 221.16C681.114 219.853 680.834 219.013 680.834 218.64V167.68C680.834 163.387 679.714 159.933 677.474 157.32C675.234 154.52 672.34 153.12 668.794 153.12C665.434 153.12 662.354 154.427 659.554 157.04C656.94 159.653 654.514 163.013 652.274 167.12C646.674 176.827 643.127 188.587 641.634 202.4L640.514 213.04C639.394 220.88 638.834 225.64 638.834 227.32L640.514 248.32C641.82 249.627 643.407 250.28 645.274 250.28L650.034 250ZM689.514 143.04C689.514 142.48 689.327 142.2 688.954 142.2C688.207 142.2 687.834 142.387 687.834 142.76C687.834 143.507 688.207 143.88 688.954 143.88C689.327 143.88 689.514 143.6 689.514 143.04ZM788.752 262.04C786.325 262.04 785.112 259.987 785.112 255.88C785.112 254.76 785.299 253.733 785.672 252.8C786.045 251.867 787.072 251.4 788.752 251.4H809.752C810.125 246.733 810.685 241.04 811.432 234.32C812.179 227.413 812.925 219.853 813.672 211.64C815.539 191.107 816.472 172.533 816.472 155.92V87.88L799.392 90.4L753.192 120.08C753.005 120.08 752.819 120.547 752.632 121.48C752.632 122.227 752.445 122.6 752.072 122.6C750.019 122.6 748.245 121.667 746.752 119.8C745.259 117.933 744.512 115.973 744.512 113.92L763.272 64.64L794.912 74.44C800.139 76.12 807.885 76.96 818.152 76.96L839.712 76.4L866.872 76.68C880.499 76.68 891.699 74.6267 900.472 70.52C902.152 69.7733 903.552 69.0267 904.672 68.28C905.605 67.3467 906.632 66.5067 907.752 65.76C909.805 64.2667 912.139 63.52 914.752 63.52C917.365 63.52 919.045 64.08 919.792 65.2L938.832 104.12C938.832 105.053 937.899 106.453 936.032 108.32C934.352 110 933.512 110.747 933.512 110.56L901.032 96.84L877.792 87.88C875.552 87.88 873.685 88.44 872.192 89.56C870.885 90.68 869.859 92.92 869.112 96.28C867.619 101.88 866.872 114.76 866.872 134.92L865.192 209.96C865.192 233.48 866.312 246.733 868.552 249.72C869.299 250.84 870.232 251.307 871.352 251.12L886.472 249.72C888.899 249.72 890.952 249.907 892.632 250.28C894.125 250.28 894.872 251.213 894.872 253.08C894.872 257.933 893.659 260.547 891.232 260.92L873.872 262.04H788.752ZM931.351 234.04C927.617 228.627 925.471 222.933 924.911 216.96C924.351 210.987 924.071 204.08 924.071 196.24C924.071 188.4 926.777 180.84 932.191 173.56C937.604 166.093 944.511 159.747 952.911 154.52C970.457 143.32 989.311 137.72 1009.47 137.72C1026.83 137.72 1041.48 146.4 1053.43 163.76C1058.66 171.227 1062.58 179.44 1065.19 188.4C1067.99 197.173 1069.39 206.133 1069.39 215.28C1069.39 224.427 1066.59 233.293 1060.99 241.88C1053.52 253.453 1042.88 260.92 1029.07 264.28C1024.59 265.4 1018.8 266.427 1011.71 267.36C1004.8 268.48 1000.7 269.04 999.391 269.04C985.577 269.04 972.977 266.52 961.591 261.48C950.204 256.44 940.124 247.293 931.351 234.04ZM977.831 205.76C977.831 210.053 978.017 214.72 978.391 219.76C978.951 224.8 979.884 229.653 981.191 234.32C984.364 245.707 988.937 251.4 994.911 251.4C1001.44 251.4 1006.48 249.16 1010.03 244.68C1013.58 240.2 1016.19 234.787 1017.87 228.44C1020.11 219.853 1021.23 206.413 1021.23 188.12C1021.23 180.28 1020.3 173.467 1018.43 167.68C1013.95 157.973 1010.59 152.56 1008.35 151.44C1008.16 151.44 1007.98 151.44 1007.79 151.44C996.404 151.44 988.284 158.067 983.431 171.32C979.697 181.027 977.831 192.507 977.831 205.76ZM1143.93 330.64C1114.63 332.507 1096.71 333.44 1090.17 333.44C1083.83 333.44 1080.65 331.947 1080.65 328.96C1080.65 325.973 1081.31 323.827 1082.61 322.52C1083.92 321.213 1085.41 320.187 1087.09 319.44C1088.77 318.693 1090.36 317.853 1091.85 316.92C1093.35 315.987 1094.65 312.72 1095.77 307.12C1096.89 301.707 1098.01 295.547 1099.13 288.64C1100.25 281.733 1101.09 274.92 1101.65 268.2C1102.4 259.24 1102.77 243.84 1102.77 222V211.92C1102.77 205.76 1102.49 199.6 1101.93 193.44C1101.56 187.28 1099.88 182.147 1096.89 178.04C1095.96 176.733 1094.56 175.707 1092.69 174.96C1091.2 174.027 1089.52 173.187 1087.65 172.44C1083.17 170.387 1080.93 167.587 1080.93 164.04C1080.93 163.107 1086.35 160.867 1097.17 157.32C1108 153.587 1115.47 150.973 1119.57 149.48C1129.09 145.933 1134.41 143.227 1135.53 141.36H1145.05V157.04C1146.73 156.293 1147.85 155.36 1148.41 154.24C1148.97 152.933 1149.81 151.533 1150.93 150.04C1155.23 144.813 1159.8 141.173 1164.65 139.12C1169.51 136.88 1174.73 135.76 1180.33 135.76C1189.29 135.76 1195.36 136.413 1198.53 137.72C1205.63 141.08 1211.41 144.44 1215.89 147.8C1220.56 151.16 1224.2 155.08 1226.81 159.56C1231.29 167.4 1233.53 180.56 1233.53 199.04C1233.53 204.827 1229.24 214.253 1220.65 227.32C1218.6 230.307 1216.64 232.92 1214.77 235.16C1213.09 237.213 1210.11 239.64 1205.81 242.44C1201.52 245.24 1197.13 247.667 1192.65 249.72C1182.39 254.387 1176.04 256.72 1173.61 256.72C1171.19 256.72 1168.76 256.347 1166.33 255.6C1163.91 254.667 1161.29 253.827 1158.49 253.08C1149.35 250.84 1143.65 249.72 1141.41 249.72C1140.85 249.72 1140.48 254.2 1140.29 263.16C1139.73 281.453 1139.08 293.493 1138.33 299.28L1139.45 317.2C1146.17 317.2 1149.53 319.72 1149.53 324.76C1149.53 326.253 1148.97 327.56 1147.85 328.68C1146.92 329.987 1145.61 330.64 1143.93 330.64ZM1142.25 234.04C1151.96 238.707 1162.51 241.04 1173.89 241.04C1174.08 241.04 1174.17 241.04 1174.17 241.04C1181.83 241.04 1187.52 235.907 1191.25 225.64C1194.24 217.427 1195.73 208.373 1195.73 198.48C1195.73 188.4 1195.45 181.12 1194.89 176.64C1194.33 172.16 1193.31 168.333 1191.81 165.16C1189.2 159.933 1183.23 154.893 1173.89 150.04C1163.44 155.267 1155.04 165.907 1148.69 181.96C1143.28 195.4 1140.57 209.96 1140.57 225.64C1140.57 228.627 1140.85 230.493 1141.41 231.24C1142.16 231.8 1142.53 232.36 1142.53 232.92C1142.53 233.293 1142.44 233.48 1142.25 233.48C1142.25 233.48 1142.25 233.573 1142.25 233.76V234.04ZM1302.05 259.24C1292.16 259.24 1279.37 260.547 1263.69 263.16C1259.02 263.16 1256.69 260.733 1256.69 255.88C1256.69 252.333 1257.62 250.093 1259.49 249.16C1261.54 248.227 1263.88 247.76 1266.49 247.76C1269.1 247.573 1271.62 247.387 1274.05 247.2C1276.66 247.013 1278.44 245.987 1279.37 244.12V241.32L1279.65 232.64V229.84C1279.65 207.44 1277.78 188.12 1274.05 171.88C1271.81 168.52 1269.1 166.56 1265.93 166C1262.76 165.44 1259.68 165.16 1256.69 165.16C1253.89 164.973 1251.37 164.6 1249.13 164.04C1247.08 163.293 1246.05 161.613 1246.05 159C1246.05 156.387 1247.36 154.333 1249.97 152.84C1252.77 151.347 1255.94 150.04 1259.49 148.92C1263.22 147.8 1266.77 146.867 1270.13 146.12C1273.68 145.187 1277.6 143.88 1281.89 142.2L1299.53 135.76C1307.18 132.96 1313.62 131.56 1318.85 131.56C1324.08 131.56 1326.97 132.12 1327.53 133.24C1328.28 134.173 1328.65 136.507 1328.65 140.24C1328.65 143.973 1328.09 146.96 1326.97 149.2L1326.69 197.64C1326.69 207.907 1326.97 214.533 1327.53 217.52C1328.28 221.44 1329.4 226.2 1330.89 231.8C1332.57 237.4 1334.53 241.227 1336.77 243.28C1339.01 245.147 1341.34 246.92 1343.77 248.6L1350.49 252.52C1352.36 253.827 1353.29 254.947 1353.29 255.88C1353.29 259.053 1352.17 261.013 1349.93 261.76C1347.69 262.693 1345.17 263.16 1342.37 263.16L1339.01 262.88C1331.17 260.453 1318.85 259.24 1302.05 259.24ZM1284.13 121.48C1271.62 121.48 1265.37 114.2 1265.37 99.64C1265.37 84.8933 1273.58 73.4133 1290.01 65.2C1297.85 65.2 1304.1 67.44 1308.77 71.92C1313.62 76.2133 1316.05 82.1867 1316.05 89.84C1316.05 97.4933 1312.5 104.68 1305.41 111.4C1298.32 118.12 1291.22 121.48 1284.13 121.48ZM1448.6 169.64C1448.6 154.893 1442.07 147.52 1429 147.52C1423.4 147.52 1419.48 149.667 1417.24 153.96C1416.12 156.387 1415.47 159.093 1415.28 162.08C1415.28 164.88 1415.66 166.653 1416.4 167.4C1417.34 168.147 1417.8 169.453 1417.8 171.32C1417.8 174.68 1415.84 176.92 1411.92 178.04C1409.5 178.787 1405.95 179.16 1401.28 179.16C1397.92 179.16 1393.72 180 1388.68 181.68C1383.64 183.36 1380.75 184.2 1380 184.2C1378.32 184.2 1377.02 183.173 1376.08 181.12C1375.34 179.067 1374.96 177.107 1374.96 175.24C1374.96 171.88 1377.11 166.653 1381.4 159.56C1385.88 152.28 1389.71 147.427 1392.88 145C1398.67 140.707 1403.99 137.253 1408.84 134.64C1413.7 131.84 1418.74 130.44 1423.96 130.44C1450.84 130.44 1468.2 137.627 1476.04 152C1480.52 160.213 1482.76 170.107 1482.76 181.68C1482.76 186.72 1482.11 191.853 1480.8 197.08C1479.5 202.307 1478.84 207.347 1478.84 212.2C1478.84 220.04 1480.43 227.32 1483.6 234.04C1487.71 239.827 1491.26 243.187 1494.24 244.12C1495.36 244.12 1496.39 243.747 1497.32 243C1498.44 242.253 1499.47 241.88 1500.4 241.88C1504.32 241.88 1506.28 243.84 1506.28 247.76C1506.28 251.493 1504.6 254.76 1501.24 257.56C1494.52 263.16 1488.08 265.96 1481.92 265.96C1475.76 265.96 1471.38 265.587 1468.76 264.84C1466.15 264.093 1463.82 263.067 1461.76 261.76C1459.71 260.453 1457.94 259.053 1456.44 257.56L1451.96 253.36L1447.76 249.16C1446.64 247.853 1445.99 247.2 1445.8 247.2C1433.11 262.507 1417.06 270.16 1397.64 270.16C1386.63 270.16 1377.58 266.333 1370.48 258.68C1363.58 251.027 1360.12 243.84 1360.12 237.12C1360.12 224.427 1366.47 214.16 1379.16 206.32C1392.23 198.48 1412.02 192.693 1438.52 188.96C1441.14 188.773 1443.19 188.12 1444.68 187C1447.3 185.133 1448.6 179.347 1448.6 169.64ZM1409.68 214.16C1407.63 217.52 1406.6 220.693 1406.6 223.68C1406.6 230.773 1407.26 237.307 1408.56 243.28C1409.87 249.253 1412.11 252.427 1415.28 252.8C1419.95 252.8 1423.96 251.493 1427.32 248.88C1433.3 244.213 1436.47 239.547 1436.84 234.88L1440.2 199.88C1425.64 199.88 1415.47 204.64 1409.68 214.16Z" fill="#2B468B"/>
<defs>
<filter id="filter0_d_6_685" x="147" y="29" width="1337" height="320" filterUnits="userSpaceOnUse" color-interpolation-filters="sRGB">
<feFlood flood-opacity="0" result="BackgroundImageFix"/>
<feColorMatrix in="SourceAlpha" type="matrix" values="0 0 0 0 0 0 0 0 0 0 0 0 0 0 0 0 0 0 127 0" result="hardAlpha"/>
<feOffset dx="5" dy="10"/>
<feGaussianBlur stdDeviation="5"/>
<feComposite in2="hardAlpha" operator="out"/>
<feColorMatrix type="matrix" values="0 0 0 0 0.168627 0 0 0 0 0.27451 0 0 0 0 0.545098 0 0 0 1 0"/>
<feBlend mode="hard-light" in2="BackgroundImageFix" result="effect1_dropShadow_6_685"/>
<feBlend mode="normal" in="SourceGraphic" in2="effect1_dropShadow_6_685" result="shape"/>
</filter>
</defs>
</svg>
