<svg width="1479" height="128" viewBox="0 0 1479 128" fill="none" xmlns="http://www.w3.org/2000/svg">
<path d="M21.0455 95.304C19.9362 95.304 19.3815 94.3653 19.3815 92.488C19.3815 91.976 19.4668 91.5067 19.6375 91.08C19.8082 90.6533 20.2775 90.44 21.0455 90.44H30.6455C30.8162 88.3067 31.0722 85.704 31.4135 82.632C31.7548 79.4747 32.0962 76.0187 32.4375 72.264C33.2908 62.8773 33.7175 54.3867 33.7175 46.792V15.688L25.9095 16.84L4.7895 30.408C4.70417 30.408 4.61883 30.6213 4.5335 31.048C4.5335 31.3893 4.44817 31.56 4.2775 31.56C3.33883 31.56 2.52817 31.1333 1.8455 30.28C1.16283 29.4267 0.8215 28.5307 0.8215 27.592L9.3975 5.064L23.8615 9.544C26.2508 10.312 29.7922 10.696 34.4855 10.696L44.3415 10.44L56.7575 10.568C62.9868 10.568 68.1068 9.62933 72.1175 7.752C72.8855 7.41066 73.5255 7.06933 74.0375 6.728C74.4642 6.30133 74.9335 5.91733 75.4455 5.576C76.3842 4.89333 77.4508 4.55199 78.6455 4.55199C79.8402 4.55199 80.6082 4.80799 80.9495 5.31999L89.6535 23.112C89.6535 23.5387 89.2268 24.1787 88.3735 25.032C87.6055 25.8 87.2215 26.1413 87.2215 26.056L72.3735 19.784L61.7495 15.688C60.7255 15.688 59.8722 15.944 59.1895 16.456C58.5922 16.968 58.1228 17.992 57.7815 19.528C57.0988 22.088 56.7575 27.976 56.7575 37.192L55.9895 71.496C55.9895 82.248 56.5015 88.3067 57.5255 89.672C57.8668 90.184 58.2935 90.3973 58.8055 90.312L65.7175 89.672C66.8268 89.672 67.7655 89.7573 68.5335 89.928C69.2162 89.928 69.5575 90.3547 69.5575 91.208C69.5575 93.4267 69.0028 94.6213 67.8935 94.792L59.9575 95.304H21.0455ZM86.2335 82.504C84.5268 80.0293 83.5455 77.4267 83.2895 74.696C83.0335 71.9653 82.9055 68.808 82.9055 65.224C82.9055 61.64 84.1428 58.184 86.6175 54.856C89.0922 51.4427 92.2495 48.5413 96.0895 46.152C104.111 41.032 112.73 38.472 121.946 38.472C129.882 38.472 136.58 42.44 142.042 50.376C144.431 53.7893 146.223 57.544 147.418 61.64C148.698 65.6507 149.338 69.7467 149.338 73.928C149.338 78.1093 148.058 82.1627 145.498 86.088C142.084 91.3787 137.22 94.792 130.906 96.328C128.858 96.84 126.212 97.3093 122.97 97.736C119.812 98.248 117.935 98.504 117.338 98.504C111.023 98.504 105.263 97.352 100.058 95.048C94.8522 92.744 90.2442 88.5627 86.2335 82.504ZM107.482 69.576C107.482 71.5387 107.567 73.672 107.738 75.976C107.994 78.28 108.42 80.4987 109.018 82.632C110.468 87.8373 112.559 90.44 115.29 90.44C118.276 90.44 120.58 89.416 122.202 87.368C123.823 85.32 125.018 82.8453 125.786 79.944C126.81 76.0187 127.322 69.8747 127.322 61.512C127.322 57.928 126.895 54.8133 126.042 52.168C123.994 47.7307 122.458 45.256 121.434 44.744C121.348 44.744 121.263 44.744 121.178 44.744C115.972 44.744 112.26 47.7733 110.042 53.832C108.335 58.2693 107.482 63.5173 107.482 69.576ZM183.155 94.024L163.955 94.28C161.224 94.1093 159.347 93.896 158.323 93.64C157.299 93.4693 156.786 92.7013 156.786 91.336C156.872 89.8853 157.384 89.032 158.323 88.776C159.261 88.4347 160.285 88.264 161.395 88.264C162.589 88.1787 163.656 88.0507 164.595 87.88C165.533 87.7093 166.045 87.112 166.131 86.088L165.491 80.328C165.491 79.816 165.533 78.536 165.619 76.488C165.704 74.3547 165.789 72.008 165.875 69.448C166.131 62.9627 166.387 58.952 166.643 57.416L166.131 55.368L165.491 53.064C164.979 51.3573 164.424 50.504 163.827 50.504L156.531 50.12C156.104 50.12 155.72 49.6933 155.379 48.84C155.123 47.9867 154.995 47.432 154.995 47.176C154.995 46.3227 155.293 45.8533 155.891 45.768L170.483 43.336C171.763 43.08 173.128 42.568 174.579 41.8C177.309 40.3493 179.272 39.624 180.467 39.624C181.747 39.624 182.643 39.8373 183.155 40.264C183.667 40.6907 184.051 41.2453 184.307 41.928C184.648 42.8667 184.819 44.36 184.819 46.408C186.781 45.7253 188.787 44.9573 190.835 44.104C192.883 43.2507 194.845 42.4827 196.723 41.8C201.075 40.0933 204.061 39.24 205.683 39.24C205.768 39.24 205.811 39.24 205.811 39.24C207.432 39.3253 208.755 39.752 209.779 40.52C210.888 41.2027 211.955 42.056 212.979 43.08C214.088 44.0187 215.069 44.9573 215.923 45.896C216.861 46.8347 217.629 47.56 218.227 48.072C225.48 42.2693 231.795 39.368 237.171 39.368C243.741 39.4533 248.605 41.2027 251.763 44.616C253.128 46.152 253.811 48.1147 253.811 50.504L253.043 73.416V80.328C253.043 83.8267 253.896 85.7893 255.603 86.216C257.651 86.728 258.931 87.1973 259.443 87.624C260.04 88.0507 260.339 88.904 260.339 90.184C260.339 91.3787 259.613 92.1467 258.163 92.488C256.797 92.744 255.389 92.872 253.939 92.872C252.573 92.872 251.549 92.9147 250.867 93C250.269 93.0853 249.715 93.1707 249.203 93.256L247.667 93.512C247.155 93.5973 246.515 93.64 245.747 93.64C237.896 93.64 233.971 92.2747 233.971 89.544C233.971 84.2533 234.355 78.92 235.123 73.544C235.976 68.168 236.403 62.792 236.403 57.416C236.403 55.112 236.061 53.2347 235.379 51.784C234.781 50.3333 233.373 49.5227 231.155 49.352C228.936 49.5227 226.973 50.2907 225.267 51.656C221.939 54.216 220.275 56.4347 220.275 58.312C220.957 60.2747 221.299 62.7067 221.299 65.608C221.384 68.424 221.427 70.7707 221.427 72.648C221.427 74.5253 221.341 76.5307 221.171 78.664C220.915 80.712 220.616 82.76 220.275 84.808C219.336 90.0133 217.885 92.7013 215.923 92.872C215.496 92.9573 214.557 93.0427 213.107 93.128C211.741 93.2133 210.717 93.256 210.035 93.256C209.437 93.3413 208.797 93.3413 208.115 93.256C207.517 93.256 206.792 93.1707 205.939 93C205.085 92.9147 204.36 92.7013 203.763 92.36C202.483 91.592 201.843 90.2267 201.843 88.264C201.843 83.8267 202.141 79.6027 202.739 75.592C203.336 71.5813 203.635 67.528 203.635 63.432C203.635 59.336 202.824 56.0933 201.203 53.704C199.667 51.3147 197.917 50.12 195.955 50.12C192.541 50.12 189.64 51.656 187.251 54.728C185.203 57.4587 184.136 60.0187 184.051 62.408L182.899 87.368C183.411 87.7947 184.051 88.0507 184.819 88.136C185.587 88.2213 186.355 88.3493 187.123 88.52C187.891 88.6053 188.531 88.8187 189.043 89.16C189.64 89.5013 189.939 90.2267 189.939 91.336C189.939 92.36 189.341 93.256 188.147 94.024H183.155ZM270.234 82.504C268.527 80.0293 267.546 77.4267 267.29 74.696C267.034 71.9653 266.906 68.808 266.906 65.224C266.906 61.64 268.143 58.184 270.618 54.856C273.092 51.4427 276.25 48.5413 280.09 46.152C288.111 41.032 296.73 38.472 305.946 38.472C313.882 38.472 320.58 42.44 326.042 50.376C328.431 53.7893 330.223 57.544 331.418 61.64C332.698 65.6507 333.338 69.7467 333.338 73.928C333.338 78.1093 332.058 82.1627 329.498 86.088C326.084 91.3787 321.22 94.792 314.906 96.328C312.858 96.84 310.212 97.3093 306.97 97.736C303.812 98.248 301.935 98.504 301.338 98.504C295.023 98.504 289.263 97.352 284.058 95.048C278.852 92.744 274.244 88.5627 270.234 82.504ZM291.482 69.576C291.482 71.5387 291.567 73.672 291.738 75.976C291.994 78.28 292.42 80.4987 293.018 82.632C294.468 87.8373 296.559 90.44 299.29 90.44C302.276 90.44 304.58 89.416 306.202 87.368C307.823 85.32 309.018 82.8453 309.786 79.944C310.81 76.0187 311.322 69.8747 311.322 61.512C311.322 57.928 310.895 54.8133 310.042 52.168C307.994 47.7307 306.458 45.256 305.434 44.744C305.348 44.744 305.263 44.744 305.178 44.744C299.972 44.744 296.26 47.7733 294.042 53.832C292.335 58.2693 291.482 63.5173 291.482 69.576ZM370.742 94.024L347.062 94.92C345.099 94.92 343.435 94.664 342.07 94.152C340.79 93.64 340.15 92.2747 340.15 90.056C340.235 89.032 341.387 88.392 343.606 88.136C346.08 87.88 347.574 87.496 348.086 86.984C349.963 84.936 350.902 79.304 350.902 70.088C350.902 63.688 350.731 58.952 350.39 55.88C350.048 52.808 349.835 51.144 349.75 50.888C349.408 49.5227 348.64 48.712 347.446 48.456C346.336 48.1147 345.142 47.8587 343.862 47.688C342.582 47.5173 341.43 47.2187 340.406 46.792C339.467 46.28 338.998 45.4267 338.998 44.232C338.998 42.952 339.296 42.2267 339.894 42.056C341.6 41.9707 344.459 41.6293 348.47 41.032L357.942 39.752C360.16 39.5813 362.208 39.3253 364.086 38.984C368.011 38.3013 370.187 37.96 370.614 37.96C372.576 37.96 373.558 39.2827 373.558 41.928C373.558 45.768 373.088 49.0107 372.15 51.656C373.259 50.7173 374.411 49.352 375.606 47.56C376.8 45.768 378.08 43.976 379.446 42.184C382.859 37.7467 385.76 35.528 388.15 35.528C390.539 35.528 392.63 36.04 394.422 37.064C396.214 38.088 397.75 39.4107 399.03 41.032C401.76 44.5307 403.126 48.328 403.126 52.424C403.04 58.1413 400.95 62.1947 396.854 64.584C395.318 65.4373 393.568 65.864 391.606 65.864C389.728 65.864 388.278 65.2667 387.254 64.072C386.23 62.8773 385.376 61.4267 384.694 59.72C384.096 58.0133 383.542 56.2213 383.03 54.344C382.518 52.3813 381.963 50.632 381.366 49.096C374.454 55.5813 370.656 62.792 369.974 70.728C369.803 73.032 369.675 75.336 369.59 77.64L369.718 85.96C369.718 87.0693 370.059 87.7947 370.742 88.136C371.424 88.4773 372.192 88.776 373.046 89.032C373.899 89.2027 374.667 89.4587 375.35 89.8C376.032 90.056 376.374 90.696 376.374 91.72C376.374 92.744 375.862 93.5547 374.838 94.152L370.742 94.024ZM438.992 94.024L415.312 94.92C413.349 94.92 411.685 94.664 410.32 94.152C409.04 93.64 408.4 92.2747 408.4 90.056C408.485 89.032 409.637 88.392 411.856 88.136C414.33 87.88 415.824 87.496 416.336 86.984C418.213 84.936 419.152 79.304 419.152 70.088C419.152 63.688 418.981 58.952 418.64 55.88C418.298 52.808 418.085 51.144 418 50.888C417.658 49.5227 416.89 48.712 415.696 48.456C414.586 48.1147 413.392 47.8587 412.112 47.688C410.832 47.5173 409.68 47.2187 408.656 46.792C407.717 46.28 407.248 45.4267 407.248 44.232C407.248 42.952 407.546 42.2267 408.144 42.056C409.85 41.9707 412.709 41.6293 416.72 41.032L426.192 39.752C428.41 39.5813 430.458 39.3253 432.336 38.984C436.261 38.3013 438.437 37.96 438.864 37.96C440.826 37.96 441.808 39.2827 441.808 41.928C441.808 45.768 441.338 49.0107 440.4 51.656C441.509 50.7173 442.661 49.352 443.856 47.56C445.05 45.768 446.33 43.976 447.696 42.184C451.109 37.7467 454.01 35.528 456.4 35.528C458.789 35.528 460.88 36.04 462.672 37.064C464.464 38.088 466 39.4107 467.28 41.032C470.01 44.5307 471.376 48.328 471.376 52.424C471.29 58.1413 469.2 62.1947 465.104 64.584C463.568 65.4373 461.818 65.864 459.856 65.864C457.978 65.864 456.528 65.2667 455.504 64.072C454.48 62.8773 453.626 61.4267 452.944 59.72C452.346 58.0133 451.792 56.2213 451.28 54.344C450.768 52.3813 450.213 50.632 449.616 49.096C442.704 55.5813 438.906 62.792 438.224 70.728C438.053 73.032 437.925 75.336 437.84 77.64L437.968 85.96C437.968 87.0693 438.309 87.7947 438.992 88.136C439.674 88.4773 440.442 88.776 441.296 89.032C442.149 89.2027 442.917 89.4587 443.6 89.8C444.282 90.056 444.624 90.696 444.624 91.72C444.624 92.744 444.112 93.5547 443.088 94.152L438.992 94.024ZM480.234 82.504C478.527 80.0293 477.546 77.4267 477.29 74.696C477.034 71.9653 476.906 68.808 476.906 65.224C476.906 61.64 478.143 58.184 480.618 54.856C483.092 51.4427 486.25 48.5413 490.09 46.152C498.111 41.032 506.73 38.472 515.946 38.472C523.882 38.472 530.58 42.44 536.042 50.376C538.431 53.7893 540.223 57.544 541.418 61.64C542.698 65.6507 543.338 69.7467 543.338 73.928C543.338 78.1093 542.058 82.1627 539.498 86.088C536.084 91.3787 531.22 94.792 524.906 96.328C522.858 96.84 520.212 97.3093 516.97 97.736C513.812 98.248 511.935 98.504 511.338 98.504C505.023 98.504 499.263 97.352 494.058 95.048C488.852 92.744 484.244 88.5627 480.234 82.504ZM501.482 69.576C501.482 71.5387 501.567 73.672 501.738 75.976C501.994 78.28 502.42 80.4987 503.018 82.632C504.468 87.8373 506.559 90.44 509.29 90.44C512.276 90.44 514.58 89.416 516.202 87.368C517.823 85.32 519.018 82.8453 519.786 79.944C520.81 76.0187 521.322 69.8747 521.322 61.512C521.322 57.928 520.895 54.8133 520.042 52.168C517.994 47.7307 516.458 45.256 515.434 44.744C515.348 44.744 515.263 44.744 515.178 44.744C509.972 44.744 506.26 47.7733 504.042 53.832C502.335 58.2693 501.482 63.5173 501.482 69.576ZM572.327 92.872C569.169 90.9947 567.591 89.928 567.591 89.672V88.904C564.007 81.8213 561.617 76.2747 560.423 72.264C559.057 67.912 557.393 61.128 555.431 51.912C555.004 50.2907 554.193 49.096 552.999 48.328C551.804 47.4747 550.567 46.7493 549.286 46.152C548.007 45.4693 546.855 44.744 545.831 43.976C544.806 43.1227 544.294 42.1413 544.294 41.032C544.294 39.8373 544.636 38.856 545.319 38.088C546.001 37.32 546.855 36.8507 547.879 36.68C548.988 36.424 550.481 36.2107 552.359 36.04C554.321 35.784 556.199 35.5707 557.991 35.4C561.575 35.0587 564.007 34.888 565.287 34.888C568.871 34.888 571.473 36.552 573.095 39.88C574.716 43.8053 576.295 48.7547 577.831 54.728C581.159 68.1253 583.505 76.0187 584.871 78.408C585.041 78.7493 585.127 79.0053 585.127 79.176C586.236 78.664 587.559 75.4213 589.095 69.448C589.436 68.0827 589.735 67.0587 589.991 66.376C591.015 63.56 591.996 59.848 592.935 55.24C593.959 50.632 594.556 47.8587 594.727 46.92C594.983 45.9813 595.111 44.9147 595.111 43.72C595.111 42.44 595.153 41.288 595.239 40.264C595.409 39.24 595.665 38.4293 596.007 37.832C596.433 37.1493 597.159 36.808 598.183 36.808C601.425 36.808 604.839 37.064 608.423 37.576C609.617 38.2587 610.428 39.4107 610.854 41.032C611.281 42.568 611.58 43.8053 611.751 44.744C611.921 45.6827 612.135 46.536 612.391 47.304L613.799 51.528L615.975 57.928C617.937 63.6453 619.132 67.1867 619.559 68.552C623.228 77.1707 625.66 81.864 626.855 82.632C633.255 65.992 636.455 54.216 636.455 47.304C636.455 46.1947 636.369 45.2133 636.199 44.36C629.884 44.36 626.727 42.5253 626.727 38.856C626.727 36.808 628.647 35.784 632.487 35.784C636.412 35.784 639.484 35.8267 641.703 35.912C643.921 35.912 645.628 36.04 646.823 36.296C649.041 36.7227 650.151 37.704 650.151 39.24C650.151 41.1173 648.871 42.3547 646.311 42.952C645.628 43.1227 645.031 43.3787 644.519 43.72C644.519 45 642.513 52.3387 638.503 65.736L631.719 88.904C631.121 90.952 630.353 92.4453 629.415 93.384C628.561 94.3227 626.769 94.792 624.039 94.792C617.98 94.792 613.585 92.872 610.854 89.032C608.039 85.2773 604.028 78.2373 598.823 67.912C597.884 66.0347 597.329 65.0107 597.159 64.84C595.964 66.632 594.513 70.472 592.807 76.36C591.1 82.1627 590.076 85.576 589.735 86.6L589.223 88.008V91.976C588.455 92.3173 587.857 92.6587 587.431 93C586.833 93.512 585.767 93.768 584.231 93.768C584.06 93.768 583.847 93.768 583.591 93.768C582.14 93.768 580.348 93.5973 578.215 93.256C576.679 93 575.143 92.872 573.607 92.872C573.18 92.872 572.753 92.872 572.327 92.872ZM657.285 13.768L655.237 7.62399C655.237 4.72266 657.071 2.58933 660.741 1.224C661.679 0.882665 662.618 0.711998 663.557 0.711998C666.373 0.711998 668.463 1.608 669.829 3.39999C671.279 5.10666 672.005 7.41066 672.005 10.312C672.005 12.5307 671.621 14.1093 670.853 15.048C670.085 15.9867 669.018 17.1387 667.653 18.504C666.287 19.8693 664.837 21.1493 663.301 22.344C659.461 25.416 656.431 26.952 654.213 26.952C651.994 26.952 650.885 26.5253 650.885 25.672C650.885 24.8187 651.226 24.136 651.909 23.624C652.506 23.0267 653.231 22.3867 654.085 21.704C656.303 19.912 657.413 17.7787 657.413 15.304L657.285 13.768ZM702.284 42.184C695.201 42.184 691.66 43.2507 691.66 45.384C691.66 48.0293 692.47 50.376 694.092 52.424C695.713 54.472 697.718 56.4347 700.108 58.312C702.497 60.104 705.1 61.8533 707.916 63.56C710.817 65.2667 713.462 67.0587 715.852 68.936C721.484 73.3733 724.3 78.024 724.3 82.888C724.3 88.8613 720.972 92.9573 714.316 95.176C710.22 96.5413 705.1 97.224 698.956 97.224C692.897 97.224 687.862 96.7547 683.852 95.816C679.926 94.8773 676.726 94.2373 674.252 93.896C671.862 93.64 670.412 93.1707 669.9 92.488C669.473 91.8053 669.26 90.9947 669.26 90.056C669.26 89.032 669.473 88.136 669.9 87.368C670.326 86.5147 670.838 85.704 671.436 84.936C673.142 82.7173 674.166 81.1387 674.508 80.2C674.849 79.176 675.105 78.2373 675.276 77.384C675.446 76.7013 675.702 76.0187 676.044 75.336C676.726 73.8 677.793 73.032 679.244 73.032C680.78 73.032 682.06 74.0133 683.083 75.976C684.193 77.9387 685.43 80.1147 686.796 82.504C688.246 84.808 689.953 86.9413 691.916 88.904C693.964 90.8667 696.652 91.848 699.979 91.848C705.697 91.848 708.556 90.2693 708.556 87.112C708.556 84.4667 705.569 80.8827 699.596 76.36C697.036 74.3973 694.22 72.3493 691.148 70.216C688.076 68.0827 685.26 65.9493 682.7 63.816C676.641 58.8667 673.612 54.6 673.612 51.016C673.612 47.688 674.465 45.128 676.172 43.336C677.964 41.4587 680.14 40.008 682.7 38.984C686.198 37.5333 691.574 36.5093 698.828 35.912L705.228 35.784L714.956 35.656C718.71 35.656 720.972 35.912 721.74 36.424C722.849 37.2773 723.404 38.8987 723.404 41.288C723.404 43.6773 723.361 45.768 723.276 47.56C723.276 49.352 723.19 50.9307 723.02 52.296C722.678 55.112 721.825 56.52 720.46 56.52C718.582 56.52 716.918 55.7947 715.468 54.344C714.017 52.808 712.609 51.144 711.244 49.352C709.964 47.56 708.598 45.9387 707.148 44.488C705.782 42.952 704.161 42.184 702.284 42.184ZM780.296 95.304C779.186 95.304 778.632 94.3653 778.632 92.488C778.632 91.976 778.717 91.5067 778.888 91.08C779.058 90.6533 779.528 90.44 780.296 90.44H789.896C790.066 88.3067 790.322 85.704 790.664 82.632C791.005 79.4747 791.346 76.0187 791.688 72.264C792.541 62.8773 792.968 54.3867 792.968 46.792V15.688L785.16 16.84L764.04 30.408C763.954 30.408 763.869 30.6213 763.784 31.048C763.784 31.3893 763.698 31.56 763.528 31.56C762.589 31.56 761.778 31.1333 761.096 30.28C760.413 29.4267 760.072 28.5307 760.072 27.592L768.648 5.064L783.112 9.544C785.501 10.312 789.042 10.696 793.736 10.696L803.592 10.44L816.008 10.568C822.237 10.568 827.357 9.62933 831.368 7.752C832.136 7.41066 832.776 7.06933 833.288 6.728C833.714 6.30133 834.184 5.91733 834.696 5.576C835.634 4.89333 836.701 4.55199 837.896 4.55199C839.09 4.55199 839.858 4.80799 840.2 5.31999L848.904 23.112C848.904 23.5387 848.477 24.1787 847.624 25.032C846.856 25.8 846.472 26.1413 846.472 26.056L831.624 19.784L821 15.688C819.976 15.688 819.122 15.944 818.44 16.456C817.842 16.968 817.373 17.992 817.032 19.528C816.349 22.088 816.008 27.976 816.008 37.192L815.24 71.496C815.24 82.248 815.752 88.3067 816.776 89.672C817.117 90.184 817.544 90.3973 818.056 90.312L824.968 89.672C826.077 89.672 827.016 89.7573 827.784 89.928C828.466 89.928 828.808 90.3547 828.808 91.208C828.808 93.4267 828.253 94.6213 827.144 94.792L819.208 95.304H780.296ZM869.804 76.488L869.676 78.152C869.676 81.9067 870.614 85.192 872.492 88.008C873.174 88.9467 873.772 89.5867 874.284 89.928C874.796 90.184 875.478 90.312 876.332 90.312H878.124C884.097 90.312 889.644 88.904 894.764 86.088C895.702 85.576 896.641 84.808 897.58 83.784L900.652 80.456C901.59 79.432 902.486 78.536 903.34 77.768C904.193 76.9147 904.961 76.488 905.644 76.488C906.326 76.488 906.838 76.872 907.18 77.64C907.521 78.408 907.692 79.0053 907.692 79.432C907.606 80.2853 906.54 81.864 904.492 84.168C902.273 86.5573 899.841 88.52 897.196 90.056C894.55 91.5067 891.692 92.744 888.62 93.768C882.732 95.6453 876.844 96.584 870.956 96.584C870.87 96.6693 870.785 96.712 870.7 96.712C864.897 96.712 859.99 95.2613 855.98 92.36C851.884 89.4587 848.214 85.7893 844.972 81.352C843.35 79.1333 842.412 76.7867 842.156 74.312C841.9 71.752 841.772 68.8933 841.772 65.736C841.772 62.4933 843.094 58.9947 845.74 55.24C848.385 51.4853 851.628 48.1147 855.468 45.128C859.308 42.056 863.404 39.5813 867.756 37.704C872.193 35.8267 875.862 34.888 878.764 34.888C881.665 34.888 884.481 35.144 887.212 35.656C889.857 35.9973 892.374 36.7653 894.764 37.96C900.396 40.6907 903.212 44.7867 903.212 50.248C903.212 57.416 899.372 63.56 891.692 68.68C885.206 73.1173 877.91 75.72 869.804 76.488ZM868.14 67.016C868.14 67.8693 868.566 68.5947 869.42 69.192C870.273 69.7893 871.468 70.088 873.004 70.088C873.089 70.088 873.132 70.088 873.132 70.088C876.033 70.088 879.148 67.5707 882.476 62.536C885.633 57.8427 887.212 53.6613 887.212 49.992C887.212 47.7733 886.742 46.024 885.804 44.744C884.097 42.44 882.262 41.288 880.3 41.288C878.422 41.288 876.758 42.2267 875.308 44.104C873.772 45.9813 872.492 48.2 871.468 50.76C869.249 56.392 868.14 61.8107 868.14 67.016ZM969.229 37.064C970.338 37.064 971.362 37.448 972.301 38.216C973.325 38.8987 973.837 39.2827 973.837 39.368V53.96C973.837 54.8133 973.325 55.5387 972.301 56.136C971.277 56.7333 970.295 57.032 969.357 57.032C968.503 57.032 967.437 56.4347 966.157 55.24C964.962 53.96 963.511 52.552 961.805 51.016C957.282 47.0907 952.589 45.128 947.725 45.128C945.933 45.128 944.311 46.0667 942.861 47.944C941.495 49.8213 940.386 51.8267 939.533 53.96C938.679 56.0933 938.082 58.184 937.741 60.232C937.229 63.1333 936.973 66.2907 936.973 69.704C936.887 69.96 936.845 70.1733 936.845 70.344C936.845 73.5013 937.143 76.2747 937.741 78.664C938.423 81.0533 939.277 83.272 940.301 85.32C943.543 89.2453 946.402 91.5493 948.877 92.232C954.85 92.232 960.525 89.6293 965.901 84.424C966.413 83.8267 966.797 83.1867 967.053 82.504C967.309 81.8213 967.607 81.1387 967.949 80.456C968.717 79.0053 969.911 78.28 971.533 78.28C973.154 78.1947 974.221 78.5787 974.733 79.432C975.245 80.2853 975.501 81.1387 975.501 81.992C974.733 83.528 973.453 85.192 971.661 86.984C969.954 88.776 968.162 90.312 966.285 91.592C964.493 92.872 962.573 93.896 960.525 94.664C956.855 96.0293 952.375 96.712 947.085 96.712C941.879 96.712 937.229 96.2427 933.133 95.304C929.122 94.28 925.623 92.6587 922.637 90.44C916.237 85.576 913.036 77.7253 913.036 66.888C913.122 59.3787 915.81 53.064 921.101 47.944C927.159 42.1413 935.138 39.1973 945.037 39.112C947.597 39.112 949.943 39.368 952.077 39.88C954.295 40.3067 956.983 40.52 960.141 40.52C963.298 40.52 966.327 39.368 969.229 37.064ZM1013.76 89.8C1015.72 89.8 1016.96 90.8667 1017.47 93C1017.47 94.536 1017 95.432 1016.06 95.688C1015.12 96.0293 1013.93 96.2 1012.48 96.2C1011.11 96.2 1010 96.1573 1009.15 96.072C1008.12 96.072 1007.19 95.9867 1006.33 95.816C1004.28 95.4747 1001.81 95.304 998.909 95.304C996.093 95.304 994.045 95.3467 992.765 95.432C991.57 95.6027 990.418 95.816 989.309 96.072C988.199 96.328 987.09 96.584 985.981 96.84L982.269 97.864H981.501C978.77 97.864 977.404 96.6267 977.404 94.152C977.404 92.5307 978.642 91.464 981.117 90.952C983.933 90.44 986.066 89.3307 987.517 87.624C989.053 85.9173 990.119 84.296 990.717 82.76C991.485 80.712 991.869 77.2133 991.869 72.264C992.893 51.784 993.405 34.8453 993.405 21.448L990.717 21.576C989.437 21.576 988.498 21.3627 987.901 20.936C987.303 20.5093 987.005 19.6133 987.005 18.248C987.005 16.8827 987.559 16.1147 988.669 15.944C989.778 15.7733 991.271 15.432 993.149 14.92C1000.23 13.128 1005.99 10.9093 1010.43 8.26399C1011.79 6.55733 1012.86 5.70399 1013.63 5.70399C1014.4 5.70399 1014.95 6.13066 1015.29 6.98399C1015.72 7.75199 1015.93 8.64799 1015.93 9.672C1015.93 10.696 1015.55 11.848 1014.78 13.128C1014.1 14.408 1013.63 15.7733 1013.37 17.224C1013.2 18.6747 1012.95 20.68 1012.6 23.24C1012.35 25.7147 1012.09 28.1467 1011.84 30.536C1011.24 36.168 1010.94 39.1973 1010.94 39.624C1010.94 39.9653 1010.94 40.6053 1010.94 41.544C1011.03 42.4827 1011.07 43.1227 1011.07 43.464C1012.6 41.928 1014.61 40.3067 1017.08 38.6C1019.64 36.8933 1021.61 35.912 1022.97 35.656C1024.34 35.3147 1026.34 35.144 1028.99 35.144C1034.96 35.144 1040.17 37.3627 1044.6 41.8C1049.55 46.7493 1052.2 54.3013 1052.54 64.456C1052.63 67.1867 1052.67 69.832 1052.67 72.392V74.056C1053.27 80.0293 1054.08 83.4 1055.1 84.168L1057.79 84.04C1060.43 84.04 1062.1 84.296 1062.78 84.808C1063.55 85.2347 1063.93 86.3867 1063.93 88.264C1062.91 90.312 1058.81 92.0187 1051.64 93.384C1049.85 93.7253 1048.32 93.896 1047.04 93.896C1042.68 93.896 1039.19 93 1036.54 91.208C1033.98 89.416 1031.93 86.5147 1030.4 82.504L1029.76 80.712C1029.42 80.0293 1029.12 79.3467 1028.86 78.664L1028.22 76.616C1027.96 76.0187 1027.84 75.6347 1027.84 75.464V52.168C1027.84 50.2053 1027.32 48.6267 1026.3 47.432C1025.28 46.152 1023.95 45.512 1022.33 45.512C1020.8 45.512 1019.39 46.1093 1018.11 47.304C1016.91 48.4987 1015.8 50.0347 1014.78 51.912C1012.22 56.3493 1010.6 61.7253 1009.92 68.04L1009.4 72.904C1008.89 76.488 1008.64 78.664 1008.64 79.432L1009.4 89.032C1010 89.6293 1010.73 89.928 1011.58 89.928L1013.76 89.8ZM1031.8 40.904C1031.8 40.648 1031.72 40.52 1031.55 40.52C1031.21 40.52 1031.04 40.6053 1031.04 40.776C1031.04 41.1173 1031.21 41.288 1031.55 41.288C1031.72 41.288 1031.8 41.16 1031.8 40.904ZM1114.67 95.304C1113.56 95.304 1113.01 94.3653 1113.01 92.488C1113.01 91.976 1113.09 91.5067 1113.26 91.08C1113.43 90.6533 1113.9 90.44 1114.67 90.44H1124.27C1124.44 88.3067 1124.7 85.704 1125.04 82.632C1125.38 79.4747 1125.72 76.0187 1126.06 72.264C1126.92 62.8773 1127.34 54.3867 1127.34 46.792V15.688L1119.53 16.84L1098.41 30.408C1098.33 30.408 1098.24 30.6213 1098.16 31.048C1098.16 31.3893 1098.07 31.56 1097.9 31.56C1096.96 31.56 1096.15 31.1333 1095.47 30.28C1094.79 29.4267 1094.45 28.5307 1094.45 27.592L1103.02 5.064L1117.49 9.544C1119.88 10.312 1123.42 10.696 1128.11 10.696L1137.97 10.44L1150.38 10.568C1156.61 10.568 1161.73 9.62933 1165.74 7.752C1166.51 7.41066 1167.15 7.06933 1167.66 6.728C1168.09 6.30133 1168.56 5.91733 1169.07 5.576C1170.01 4.89333 1171.08 4.55199 1172.27 4.55199C1173.47 4.55199 1174.23 4.80799 1174.57 5.31999L1183.28 23.112C1183.28 23.5387 1182.85 24.1787 1182 25.032C1181.23 25.8 1180.85 26.1413 1180.85 26.056L1166 19.784L1155.37 15.688C1154.35 15.688 1153.5 15.944 1152.81 16.456C1152.22 16.968 1151.75 17.992 1151.41 19.528C1150.72 22.088 1150.38 27.976 1150.38 37.192L1149.61 71.496C1149.61 82.248 1150.13 88.3067 1151.15 89.672C1151.49 90.184 1151.92 90.3973 1152.43 90.312L1159.34 89.672C1160.45 89.672 1161.39 89.7573 1162.16 89.928C1162.84 89.928 1163.18 90.3547 1163.18 91.208C1163.18 93.4267 1162.63 94.6213 1161.52 94.792L1153.58 95.304H1114.67ZM1179.86 82.504C1178.15 80.0293 1177.17 77.4267 1176.91 74.696C1176.66 71.9653 1176.53 68.808 1176.53 65.224C1176.53 61.64 1177.77 58.184 1180.24 54.856C1182.72 51.4427 1185.87 48.5413 1189.71 46.152C1197.74 41.032 1206.35 38.472 1215.57 38.472C1223.51 38.472 1230.21 42.44 1235.67 50.376C1238.06 53.7893 1239.85 57.544 1241.04 61.64C1242.32 65.6507 1242.96 69.7467 1242.96 73.928C1242.96 78.1093 1241.68 82.1627 1239.12 86.088C1235.71 91.3787 1230.85 94.792 1224.53 96.328C1222.48 96.84 1219.84 97.3093 1216.59 97.736C1213.44 98.248 1211.56 98.504 1210.96 98.504C1204.65 98.504 1198.89 97.352 1193.68 95.048C1188.48 92.744 1183.87 88.5627 1179.86 82.504ZM1201.11 69.576C1201.11 71.5387 1201.19 73.672 1201.36 75.976C1201.62 78.28 1202.05 80.4987 1202.64 82.632C1204.09 87.8373 1206.18 90.44 1208.91 90.44C1211.9 90.44 1214.21 89.416 1215.83 87.368C1217.45 85.32 1218.64 82.8453 1219.41 79.944C1220.43 76.0187 1220.95 69.8747 1220.95 61.512C1220.95 57.928 1220.52 54.8133 1219.67 52.168C1217.62 47.7307 1216.08 45.256 1215.06 44.744C1214.97 44.744 1214.89 44.744 1214.8 44.744C1209.6 44.744 1205.89 47.7733 1203.67 53.832C1201.96 58.2693 1201.11 63.5173 1201.11 69.576ZM1300.32 19.4C1298.78 19.4 1297.37 19.7413 1296.09 20.424C1294.9 21.1067 1293.62 21.448 1292.25 21.448C1290.89 21.448 1289.95 21.1493 1289.44 20.552C1289.01 19.9547 1288.8 19.272 1288.8 18.504C1288.8 17.736 1289.1 16.968 1289.69 16.2C1290.29 15.432 1290.93 15.0053 1291.61 14.92C1292.3 14.7493 1293.79 14.3653 1296.09 13.768C1298.4 13.1707 1300.87 12.488 1303.52 11.72L1310.94 9.544C1313.33 9.032 1314.7 8.69066 1315.04 8.52C1316.4 8.09333 1317.43 7.624 1318.11 7.112C1318.71 6.68533 1319.18 6.38666 1319.52 6.216C1320.28 5.87466 1321.31 5.70399 1322.59 5.70399C1323.87 5.70399 1324.72 6.00266 1325.15 6.6C1325.58 7.112 1325.79 8.008 1325.79 9.28799C1325.79 10.4827 1325.49 11.464 1324.89 12.232C1324.3 13 1323.87 14.664 1323.61 17.224L1322.33 27.848L1320.54 41.672C1319.26 51.9973 1318.45 59.5493 1318.11 64.328C1317.85 69.1067 1317.64 72.136 1317.47 73.416L1316.96 77.128C1316.53 80.2 1316.32 82.6747 1316.32 84.552C1316.32 86.344 1316.49 87.9653 1316.83 89.416C1319.3 89.2453 1321.44 88.5627 1323.23 87.368C1325.02 86.1733 1326.77 84.7227 1328.48 83.016C1330.52 83.1867 1331.55 84.2107 1331.55 86.088C1331.55 87.88 1330.95 89.416 1329.76 90.696C1328.56 91.8907 1327.11 92.872 1325.4 93.64C1322.16 95.0907 1319.22 95.816 1316.57 95.816C1314.01 95.816 1312.05 95.432 1310.68 94.664C1309.32 93.896 1308.04 92.9147 1306.84 91.72C1304.88 89.7573 1303.09 87.112 1301.47 83.784C1298.23 87.88 1294.13 91.2507 1289.18 93.896C1284.23 96.6267 1279.28 97.992 1274.33 97.992C1269.47 97.992 1265.63 97.224 1262.81 95.688C1259.91 94.0667 1257.61 91.976 1255.9 89.416C1252.66 84.4667 1251.04 77.5547 1251.04 68.68C1251.04 64.84 1252.19 61.2133 1254.49 57.8C1256.8 54.3013 1259.53 51.272 1262.68 48.712C1265.93 46.0667 1269.17 43.976 1272.41 42.44C1275.74 40.904 1278.77 40.136 1281.5 40.136C1284.23 40.136 1286.66 40.392 1288.8 40.904C1290.93 41.3307 1292.64 41.8427 1293.92 42.44C1295.28 43.0373 1296.35 43.6347 1297.12 44.232C1297.88 44.8293 1298.61 45.256 1299.29 45.512C1300.49 43.208 1301.17 40.7333 1301.34 38.088C1301.6 35.3573 1301.72 31.56 1301.72 26.696C1301.72 21.832 1301.26 19.4 1300.32 19.4ZM1272.8 72.008C1272.97 74.9093 1273.48 77.7253 1274.33 80.456C1277.23 85.832 1280.18 89.032 1283.16 90.056C1283.25 90.056 1283.34 90.056 1283.42 90.056C1287.77 90.056 1291.36 87.88 1294.17 83.528C1296.48 80.1147 1298.23 75.592 1299.42 69.96C1300.27 66.0347 1300.7 62.8347 1300.7 60.36C1300.7 57.8853 1300.36 55.9653 1299.68 54.6C1298.99 53.2347 1298.06 51.9547 1296.86 50.76C1294.13 48.0293 1291.4 46.664 1288.67 46.664C1288.58 46.664 1288.54 46.664 1288.54 46.664C1285.72 46.7493 1283.38 47.2613 1281.5 48.2C1279.62 49.0533 1278 50.2907 1276.64 51.912C1275.27 53.448 1274.2 55.2827 1273.44 57.416C1272.67 59.5493 1272.28 61.768 1272.28 64.072C1272.28 66.376 1272.46 69.0213 1272.8 72.008ZM1374.82 53.064C1374.82 46.3227 1371.83 42.952 1365.86 42.952C1363.3 42.952 1361.51 43.9333 1360.48 45.896C1359.97 47.0053 1359.67 48.2427 1359.59 49.608C1359.59 50.888 1359.76 51.6987 1360.1 52.04C1360.52 52.3813 1360.74 52.9787 1360.74 53.832C1360.74 55.368 1359.84 56.392 1358.05 56.904C1356.94 57.2453 1355.32 57.416 1353.19 57.416C1351.65 57.416 1349.73 57.8 1347.43 58.568C1345.12 59.336 1343.8 59.72 1343.46 59.72C1342.69 59.72 1342.09 59.2507 1341.67 58.312C1341.32 57.3733 1341.15 56.4773 1341.15 55.624C1341.15 54.088 1342.13 51.6987 1344.1 48.456C1346.15 45.128 1347.89 42.9093 1349.35 41.8C1351.99 39.8373 1354.42 38.2587 1356.64 37.064C1358.86 35.784 1361.16 35.144 1363.55 35.144C1375.84 35.144 1383.78 38.4293 1387.36 45C1389.41 48.7547 1390.43 53.2773 1390.43 58.568C1390.43 60.872 1390.13 63.2187 1389.54 65.608C1388.94 67.9973 1388.64 70.3013 1388.64 72.52C1388.64 76.104 1389.37 79.432 1390.82 82.504C1392.69 85.1493 1394.32 86.6853 1395.68 87.112C1396.19 87.112 1396.66 86.9413 1397.09 86.6C1397.6 86.2587 1398.07 86.088 1398.5 86.088C1400.29 86.088 1401.19 86.984 1401.19 88.776C1401.19 90.4827 1400.42 91.976 1398.88 93.256C1395.81 95.816 1392.87 97.096 1390.05 97.096C1387.23 97.096 1385.23 96.9253 1384.03 96.584C1382.84 96.2427 1381.77 95.7733 1380.83 95.176C1379.89 94.5787 1379.08 93.9387 1378.4 93.256L1376.35 91.336L1374.43 89.416C1373.92 88.8187 1373.62 88.52 1373.54 88.52C1367.73 95.5173 1360.4 99.016 1351.52 99.016C1346.49 99.016 1342.35 97.2667 1339.11 93.768C1335.95 90.2693 1334.37 86.984 1334.37 83.912C1334.37 78.1093 1337.27 73.416 1343.07 69.832C1349.05 66.248 1358.09 63.6027 1370.21 61.896C1371.4 61.8107 1372.34 61.512 1373.03 61C1374.22 60.1467 1374.82 57.5013 1374.82 53.064ZM1357.03 73.416C1356.09 74.952 1355.62 76.4027 1355.62 77.768C1355.62 81.0107 1355.92 83.9973 1356.51 86.728C1357.11 89.4587 1358.13 90.9093 1359.59 91.08C1361.72 91.08 1363.55 90.4827 1365.09 89.288C1367.82 87.1547 1369.27 85.0213 1369.44 82.888L1370.98 66.888C1364.32 66.888 1359.67 69.064 1357.03 73.416ZM1454.36 46.536C1450.78 46.536 1448.99 45.64 1448.99 43.848C1448.99 43.7627 1449.16 43.3787 1449.5 42.696C1449.84 41.928 1450.18 41.5013 1450.52 41.416L1475.36 39.88C1475.36 39.88 1475.4 39.88 1475.48 39.88C1475.74 39.88 1476.3 40.264 1477.15 41.032L1478.56 42.312C1478.56 44.1893 1476.17 45.2133 1471.39 45.384C1470.19 45.384 1469.13 45.4267 1468.19 45.512C1467.08 53.1067 1465.29 60.4027 1462.81 67.4L1456.8 84.808C1455.18 89.416 1453.77 93.0853 1452.57 95.816C1451.46 98.5467 1450.18 101.32 1448.73 104.136C1447.28 107.037 1445.7 109.896 1444 112.712C1442.29 115.528 1440.58 118.045 1438.88 120.264C1434.95 125.213 1431.5 127.688 1428.51 127.688C1428.42 127.688 1428.38 127.688 1428.38 127.688C1423 127.688 1417.12 123.976 1410.72 116.552C1407.3 112.627 1405 109.469 1403.8 107.08C1402.61 104.691 1402.01 103.112 1402.01 102.344C1402.01 101.576 1402.27 100.936 1402.78 100.424C1403.29 99.9973 1403.93 99.656 1404.7 99.4C1405.72 99.0587 1407.18 98.888 1409.05 98.888C1410.93 98.888 1412.42 98.9733 1413.53 99.144C1414.64 99.3147 1415.67 99.8267 1416.6 100.68C1418.74 102.728 1419.8 106.952 1419.8 113.352C1421.6 115.656 1422.88 117.192 1423.64 117.96C1425.35 119.496 1427.1 120.264 1428.89 120.264C1430.86 120.179 1433.37 117.576 1436.44 112.456C1439.43 107.336 1440.92 103.155 1440.92 99.912C1440.92 96.7547 1440.41 94.024 1439.39 91.72C1438.45 89.3307 1437.21 86.984 1435.68 84.68C1434.23 82.376 1432.6 80.072 1430.81 77.768C1429.11 75.3787 1427.19 72.4773 1425.05 69.064C1423 65.5653 1420.49 62.152 1417.5 58.824C1414.6 55.496 1410.93 52.8933 1406.49 51.016C1405.9 50.76 1405.17 50.5467 1404.32 50.376C1403.38 50.2907 1402.48 50.0773 1401.63 49.736C1399.5 48.968 1398.43 47.8587 1398.43 46.408C1398.43 44.872 1399.03 43.7627 1400.22 43.08C1401.42 42.312 1402.95 41.7573 1404.83 41.416C1406.71 40.9893 1408.8 40.6907 1411.1 40.52C1413.4 40.3493 1415.11 40.2213 1416.22 40.136C1417.33 39.9653 1418.1 39.88 1418.52 39.88C1418.95 39.88 1419.46 39.9227 1420.06 40.008C1420.74 40.0933 1421.43 40.1787 1422.11 40.264C1422.88 40.3493 1423.73 40.6053 1424.67 41.032C1425.61 41.3733 1426.84 42.312 1428.38 43.848L1432.73 49.224C1435.46 52.808 1437.94 56.3493 1440.16 59.848L1448.09 72.776C1449.29 74.312 1450.65 76.6587 1452.19 79.816H1452.96C1453.3 79.048 1454.28 76.0187 1455.9 70.728C1457.52 65.4373 1459.48 57.8 1461.79 47.816L1461.66 45.896L1454.36 46.536Z" fill="white"/>
</svg>
